<?xml version="1.0" encoding="utf-8" standalone="no"?>
<!DOCTYPE svg PUBLIC "-//W3C//DTD SVG 1.1//EN"
  "http://www.w3.org/Graphics/SVG/1.1/DTD/svg11.dtd">
<svg xmlns:xlink="http://www.w3.org/1999/xlink" width="460.8pt" height="345.6pt" viewBox="0 0 460.8 345.6" xmlns="http://www.w3.org/2000/svg" version="1.1">
 <metadata>
  <rdf:RDF xmlns:dc="http://purl.org/dc/elements/1.1/" xmlns:cc="http://creativecommons.org/ns#" xmlns:rdf="http://www.w3.org/1999/02/22-rdf-syntax-ns#">
   <cc:Work>
    <dc:type rdf:resource="http://purl.org/dc/dcmitype/StillImage"/>
    <dc:date>2022-01-22T10:28:28.081375</dc:date>
    <dc:format>image/svg+xml</dc:format>
    <dc:creator>
     <cc:Agent>
      <dc:title>Matplotlib v3.5.1, https://matplotlib.org/</dc:title>
     </cc:Agent>
    </dc:creator>
   </cc:Work>
  </rdf:RDF>
 </metadata>
 <defs>
  <style type="text/css">*{stroke-linejoin: round; stroke-linecap: butt}</style>
 </defs>
 <g id="figure_1">
  <g id="patch_1">
   <path d="M 0 345.6 
L 460.8 345.6 
L 460.8 0 
L 0 0 
z
" style="fill: #ffffff"/>
  </g>
  <g id="axes_1">
   <g id="patch_2">
    <path d="M 278.904015 94.513544 
C 267.799197 82.036645 253.6812 72.6099 237.900876 67.135287 
C 222.120552 61.660675 205.197785 60.318555 188.751792 63.237347 
C 172.3058 66.156139 156.878397 73.239682 143.945722 83.810203 
C 131.013047 94.380725 121.001167 108.089977 114.868047 123.626221 
C 108.734928 139.162464 106.682626 156.013856 108.90751 172.568006 
C 111.132394 189.122157 117.561167 204.833689 127.578704 218.199277 
C 137.59624 231.564866 150.872514 242.144182 166.137211 248.924965 
C 181.401909 255.705748 198.152134 258.464606 214.785178 256.937562 
C 207.674578 244.163606 205.545468 229.196508 208.811824 214.946403 
C 212.078179 200.696298 220.51363 188.150768 232.478025 179.749111 
C 229.764189 171.107282 228.818671 162.006686 229.698013 152.991538 
C 230.577355 143.976391 233.263673 135.230047 237.596326 127.275535 
C 241.928978 119.321023 247.819845 112.320128 254.916653 106.691501 
C 262.013462 101.062874 270.171873 96.920994 278.904015 94.513544 
" clip-path="url(#pfdbf4c850a)" style="fill: #ff0000; opacity: 0.4"/>
   </g>
   <g id="patch_3">
    <path d="M 278.904015 94.513544 
C 289.163671 106.040855 296.551039 119.834291 300.4603 134.76269 
C 304.369561 149.691089 304.690849 165.334902 301.397816 180.41122 
C 307.896385 185.163657 313.356955 191.193022 317.444323 198.129195 
C 321.53169 205.065367 324.160473 212.763455 325.169301 220.750904 
C 340.52793 213.640657 352.661681 201.00397 359.142647 185.369388 
C 365.623612 169.734806 365.98863 152.219655 360.16466 136.328637 
C 354.340691 120.437618 342.743946 107.306386 327.69488 99.56244 
C 312.645815 91.818494 295.219912 90.015255 278.904015 94.513544 
" clip-path="url(#pfdbf4c850a)" style="fill: #008000; opacity: 0.4"/>
   </g>
   <g id="patch_4">
    <path d="M 278.904015 94.513544 
C 270.171873 96.920994 262.013462 101.062874 254.916653 106.691501 
C 247.819845 112.320128 241.928978 119.321023 237.596326 127.275535 
C 233.263673 135.230047 230.577355 143.976391 229.698013 152.991538 
C 228.818671 162.006686 229.764189 171.107282 232.478025 179.749111 
C 242.593287 172.645956 254.684718 168.88835 267.044299 169.007088 
C 279.40388 169.125825 291.420888 173.11504 301.397816 180.41122 
C 304.690849 165.334902 304.369561 149.691089 300.4603 134.76269 
C 296.551039 119.834291 289.163671 106.040855 278.904015 94.513544 
" clip-path="url(#pfdbf4c850a)" style="fill: #b25900; opacity: 0.4"/>
   </g>
   <g id="patch_5">
    <path d="M 214.785178 256.937562 
C 221.466284 268.939945 232.123564 278.248542 244.915422 283.254812 
C 257.707281 288.261082 271.851864 288.659035 284.904964 284.379904 
C 297.958064 280.100773 309.12186 271.406105 316.467229 259.798352 
C 323.812598 248.190599 326.890582 234.379241 325.169301 220.750904 
C 317.983247 224.077673 310.267178 226.113161 302.375206 226.763952 
C 294.483233 227.414743 286.537959 226.670728 278.904015 224.566051 
C 270.730506 233.749456 260.89833 241.310004 249.923738 246.850717 
C 238.949146 252.391431 227.027641 255.813608 214.785178 256.937562 
" clip-path="url(#pfdbf4c850a)" style="fill: #0000ff; opacity: 0.4"/>
   </g>
   <g id="patch_6">
    <path d="M 214.785178 256.937562 
C 227.027641 255.813608 238.949146 252.391431 249.923738 246.850717 
C 260.89833 241.310004 270.730506 233.749456 278.904015 224.566051 
C 268.037724 221.570217 258.093724 215.897889 249.984132 208.069362 
C 241.87454 200.240835 235.855127 190.503017 232.478025 179.749111 
C 220.51363 188.150768 212.078179 200.696298 208.811824 214.946403 
C 205.545468 229.196508 207.674578 244.163606 214.785178 256.937562 
" clip-path="url(#pfdbf4c850a)" style="fill: #b200b2; opacity: 0.4"/>
   </g>
   <g id="patch_7">
    <path d="M 301.397816 180.41122 
C 299.613546 188.580045 296.789107 196.486452 292.993666 203.936818 
C 289.198225 211.387184 284.463021 218.32019 278.904015 224.566051 
C 286.537959 226.670728 294.483233 227.414743 302.375206 226.763952 
C 310.267178 226.113161 317.983247 224.077673 325.169301 220.750904 
C 324.160473 212.763455 321.53169 205.065367 317.444323 198.129195 
C 313.356955 191.193022 307.896385 185.163657 301.397816 180.41122 
" clip-path="url(#pfdbf4c850a)" style="fill: #0059b2; opacity: 0.4"/>
   </g>
   <g id="patch_8">
    <path d="M 232.478025 179.749111 
C 235.855127 190.503017 241.87454 200.240835 249.984132 208.069362 
C 258.093724 215.897889 268.037724 221.570217 278.904015 224.566051 
C 284.463021 218.32019 289.198225 211.387184 292.993666 203.936818 
C 296.789107 196.486452 299.613546 188.580045 301.397816 180.41122 
C 291.420888 173.11504 279.40388 169.125825 267.044299 169.007088 
C 254.684718 168.88835 242.593287 172.645956 232.478025 179.749111 
" clip-path="url(#pfdbf4c850a)" style="fill: #663366; opacity: 0.4"/>
   </g>
   <g id="text_1">
    <!-- 53 -->
    <g transform="translate(155.346788 145.937802)scale(0.1 -0.1)">
     <defs>
      <path id="DejaVuSans-35" d="M 691 4666 
L 3169 4666 
L 3169 4134 
L 1269 4134 
L 1269 2991 
Q 1406 3038 1543 3061 
Q 1681 3084 1819 3084 
Q 2600 3084 3056 2656 
Q 3513 2228 3513 1497 
Q 3513 744 3044 326 
Q 2575 -91 1722 -91 
Q 1428 -91 1123 -41 
Q 819 9 494 109 
L 494 744 
Q 775 591 1075 516 
Q 1375 441 1709 441 
Q 2250 441 2565 725 
Q 2881 1009 2881 1497 
Q 2881 1984 2565 2268 
Q 2250 2553 1709 2553 
Q 1456 2553 1204 2497 
Q 953 2441 691 2322 
L 691 4666 
z
" transform="scale(0.015625)"/>
      <path id="DejaVuSans-33" d="M 2597 2516 
Q 3050 2419 3304 2112 
Q 3559 1806 3559 1356 
Q 3559 666 3084 287 
Q 2609 -91 1734 -91 
Q 1441 -91 1130 -33 
Q 819 25 488 141 
L 488 750 
Q 750 597 1062 519 
Q 1375 441 1716 441 
Q 2309 441 2620 675 
Q 2931 909 2931 1356 
Q 2931 1769 2642 2001 
Q 2353 2234 1838 2234 
L 1294 2234 
L 1294 2753 
L 1863 2753 
Q 2328 2753 2575 2939 
Q 2822 3125 2822 3475 
Q 2822 3834 2567 4026 
Q 2313 4219 1838 4219 
Q 1578 4219 1281 4162 
Q 984 4106 628 3988 
L 628 4550 
Q 988 4650 1302 4700 
Q 1616 4750 1894 4750 
Q 2613 4750 3031 4423 
Q 3450 4097 3450 3541 
Q 3450 3153 3228 2886 
Q 3006 2619 2597 2516 
z
" transform="scale(0.015625)"/>
     </defs>
     <use xlink:href="#DejaVuSans-35"/>
     <use xlink:href="#DejaVuSans-33" x="63.623047"/>
    </g>
   </g>
   <g id="text_2">
    <!-- 15 -->
    <g transform="translate(334.570809 149.401217)scale(0.1 -0.1)">
     <defs>
      <path id="DejaVuSans-31" d="M 794 531 
L 1825 531 
L 1825 4091 
L 703 3866 
L 703 4441 
L 1819 4666 
L 2450 4666 
L 2450 531 
L 3481 531 
L 3481 0 
L 794 0 
L 794 531 
z
" transform="scale(0.015625)"/>
     </defs>
     <use xlink:href="#DejaVuSans-31"/>
     <use xlink:href="#DejaVuSans-35" x="63.623047"/>
    </g>
   </g>
   <g id="text_3">
    <!-- 14 -->
    <g transform="translate(256.513455 145.58186)scale(0.1 -0.1)">
     <defs>
      <path id="DejaVuSans-34" d="M 2419 4116 
L 825 1625 
L 2419 1625 
L 2419 4116 
z
M 2253 4666 
L 3047 4666 
L 3047 1625 
L 3713 1625 
L 3713 1100 
L 3047 1100 
L 3047 0 
L 2419 0 
L 2419 1100 
L 313 1100 
L 313 1709 
L 2253 4666 
z
" transform="scale(0.015625)"/>
     </defs>
     <use xlink:href="#DejaVuSans-31"/>
     <use xlink:href="#DejaVuSans-34" x="63.623047"/>
    </g>
   </g>
   <g id="text_4">
    <!-- 10 -->
    <g transform="translate(275.212887 270.835696)scale(0.1 -0.1)">
     <defs>
      <path id="DejaVuSans-30" d="M 2034 4250 
Q 1547 4250 1301 3770 
Q 1056 3291 1056 2328 
Q 1056 1369 1301 889 
Q 1547 409 2034 409 
Q 2525 409 2770 889 
Q 3016 1369 3016 2328 
Q 3016 3291 2770 3770 
Q 2525 4250 2034 4250 
z
M 2034 4750 
Q 2819 4750 3233 4129 
Q 3647 3509 3647 2328 
Q 3647 1150 3233 529 
Q 2819 -91 2034 -91 
Q 1250 -91 836 529 
Q 422 1150 422 2328 
Q 422 3509 836 4129 
Q 1250 4750 2034 4750 
z
" transform="scale(0.015625)"/>
     </defs>
     <use xlink:href="#DejaVuSans-31"/>
     <use xlink:href="#DejaVuSans-30" x="63.623047"/>
    </g>
   </g>
   <g id="text_5">
    <!-- 10 -->
    <g transform="translate(224.832571 223.032656)scale(0.1 -0.1)">
     <use xlink:href="#DejaVuSans-31"/>
     <use xlink:href="#DejaVuSans-30" x="63.623047"/>
    </g>
   </g>
   <g id="text_6">
    <!-- 5 -->
    <g transform="translate(302.869822 212.272678)scale(0.1 -0.1)">
     <use xlink:href="#DejaVuSans-35"/>
    </g>
   </g>
   <g id="text_7">
    <!-- 5 -->
    <g transform="translate(262.510037 192.416275)scale(0.1 -0.1)">
     <use xlink:href="#DejaVuSans-35"/>
    </g>
   </g>
   <g id="text_8">
    <!-- A -->
    <g transform="translate(148.730865 61.732427)scale(0.12 -0.12)">
     <defs>
      <path id="DejaVuSans-41" d="M 2188 4044 
L 1331 1722 
L 3047 1722 
L 2188 4044 
z
M 1831 4666 
L 2547 4666 
L 4325 0 
L 3669 0 
L 3244 1197 
L 1141 1197 
L 716 0 
L 50 0 
L 1831 4666 
z
" transform="scale(0.015625)"/>
     </defs>
     <use xlink:href="#DejaVuSans-41"/>
    </g>
   </g>
   <g id="text_9">
    <!-- B -->
    <g transform="translate(330.557905 92.087467)scale(0.12 -0.12)">
     <defs>
      <path id="DejaVuSans-42" d="M 1259 2228 
L 1259 519 
L 2272 519 
Q 2781 519 3026 730 
Q 3272 941 3272 1375 
Q 3272 1813 3026 2020 
Q 2781 2228 2272 2228 
L 1259 2228 
z
M 1259 4147 
L 1259 2741 
L 2194 2741 
Q 2656 2741 2882 2914 
Q 3109 3088 3109 3444 
Q 3109 3797 2882 3972 
Q 2656 4147 2194 4147 
L 1259 4147 
z
M 628 4666 
L 2241 4666 
Q 2963 4666 3353 4366 
Q 3744 4066 3744 3513 
Q 3744 3084 3544 2831 
Q 3344 2578 2956 2516 
Q 3422 2416 3680 2098 
Q 3938 1781 3938 1306 
Q 3938 681 3513 340 
Q 3088 0 2303 0 
L 628 0 
L 628 4666 
z
" transform="scale(0.015625)"/>
     </defs>
     <use xlink:href="#DejaVuSans-42"/>
    </g>
   </g>
   <g id="text_10">
    <!-- C -->
    <g transform="translate(262.286295 302.357658)scale(0.12 -0.12)">
     <defs>
      <path id="DejaVuSans-43" d="M 4122 4306 
L 4122 3641 
Q 3803 3938 3442 4084 
Q 3081 4231 2675 4231 
Q 1875 4231 1450 3742 
Q 1025 3253 1025 2328 
Q 1025 1406 1450 917 
Q 1875 428 2675 428 
Q 3081 428 3442 575 
Q 3803 722 4122 1019 
L 4122 359 
Q 3791 134 3420 21 
Q 3050 -91 2638 -91 
Q 1578 -91 968 557 
Q 359 1206 359 2328 
Q 359 3453 968 4101 
Q 1578 4750 2638 4750 
Q 3056 4750 3426 4639 
Q 3797 4528 4122 4306 
z
" transform="scale(0.015625)"/>
     </defs>
     <use xlink:href="#DejaVuSans-43"/>
    </g>
   </g>
  </g>
 </g>
 <defs>
  <clipPath id="pfdbf4c850a">
   <rect x="87.775503" y="41.472" width="296.768995" height="266.112"/>
  </clipPath>
 </defs>
</svg>
