<?xml version="1.0" encoding="utf-8" standalone="no"?>
<!DOCTYPE svg PUBLIC "-//W3C//DTD SVG 1.1//EN"
  "http://www.w3.org/Graphics/SVG/1.1/DTD/svg11.dtd">
<svg xmlns:xlink="http://www.w3.org/1999/xlink" width="460.8pt" height="345.6pt" viewBox="0 0 460.8 345.6" xmlns="http://www.w3.org/2000/svg" version="1.1">
 <metadata>
  <rdf:RDF xmlns:dc="http://purl.org/dc/elements/1.1/" xmlns:cc="http://creativecommons.org/ns#" xmlns:rdf="http://www.w3.org/1999/02/22-rdf-syntax-ns#">
   <cc:Work>
    <dc:type rdf:resource="http://purl.org/dc/dcmitype/StillImage"/>
    <dc:date>2022-01-22T11:50:09.035465</dc:date>
    <dc:format>image/svg+xml</dc:format>
    <dc:creator>
     <cc:Agent>
      <dc:title>Matplotlib v3.5.1, https://matplotlib.org/</dc:title>
     </cc:Agent>
    </dc:creator>
   </cc:Work>
  </rdf:RDF>
 </metadata>
 <defs>
  <style type="text/css">*{stroke-linejoin: round; stroke-linecap: butt}</style>
 </defs>
 <g id="figure_1">
  <g id="patch_1">
   <path d="M 0 345.6 
L 460.8 345.6 
L 460.8 0 
L 0 0 
z
" style="fill: #ffffff"/>
  </g>
  <g id="axes_1">
   <g id="patch_2">
    <path d="M 314.606357 128.50492 
C 309.70909 117.636583 303.108332 107.619248 295.053549 98.831505 
C 286.998765 90.043762 277.592724 82.59773 267.190913 76.77482 
C 256.789101 70.95191 245.524231 66.826415 233.822041 64.554252 
C 222.119852 62.282088 210.129646 61.892245 198.304577 63.399457 
C 186.479507 64.906669 174.970444 68.291706 164.212355 73.426635 
C 153.454267 78.561564 143.58441 85.38087 134.975803 93.62683 
C 126.367196 101.872789 119.129671 111.440194 113.53676 121.967459 
C 107.943849 132.494724 104.066909 143.847536 102.052463 155.596833 
C 100.038018 167.34613 99.911769 179.342007 101.678487 191.131098 
C 103.445205 202.920189 107.082349 214.352083 112.45246 224.994727 
C 117.82257 235.637371 124.857132 245.354981 133.290284 253.780295 
C 141.723437 262.205608 151.447584 269.23113 162.095218 274.591341 
C 172.742851 279.951553 184.178122 283.578064 195.968851 285.333818 
C 207.75958 287.089572 219.755335 286.952168 231.502753 284.926797 
C 243.250172 282.901426 254.599373 279.013931 265.121433 273.411232 
C 275.643492 267.808534 285.204163 260.562115 293.442113 251.945843 
C 290.308833 249.387306 287.781322 246.165734 286.041959 242.513589 
C 284.302596 238.861443 283.394248 234.868733 283.382459 230.823561 
C 283.37067 226.77839 284.255731 222.780452 285.973777 219.118231 
C 287.691824 215.45601 290.200515 212.219761 293.318828 209.643005 
C 286.857089 203.858999 282.11555 196.402094 279.618626 188.097025 
C 277.121702 179.791956 276.96497 170.956626 279.165766 162.568224 
C 281.366562 154.179821 285.840643 146.559439 292.093174 140.549892 
C 298.345705 134.540346 306.137353 130.37167 314.606357 128.50492 
" clip-path="url(#p70ed15064f)" style="fill: #ff0000; opacity: 0.4"/>
   </g>
   <g id="patch_3">
    <path d="M 314.606357 128.50492 
C 319.98545 140.442556 323.230257 153.231335 324.193162 166.289459 
C 325.156068 179.347584 323.822246 192.47399 320.252375 205.071523 
C 323.791614 206.380848 327.022155 208.40803 329.740576 211.025421 
C 332.458997 213.642812 334.607018 216.794298 336.049382 220.281436 
C 348.079832 217.310585 358.46604 209.711469 364.938707 199.144432 
C 371.411374 188.577396 373.462063 175.872494 370.642716 163.80564 
C 367.823369 151.738786 360.355449 141.257849 349.870635 134.652824 
C 339.38582 128.0478 326.707707 125.837523 314.606357 128.50492 
" clip-path="url(#p70ed15064f)" style="fill: #008000; opacity: 0.4"/>
   </g>
   <g id="patch_4">
    <path d="M 314.606357 128.50492 
C 306.137353 130.37167 298.345705 134.540346 292.093174 140.549892 
C 285.840643 146.559439 281.366562 154.179821 279.165766 162.568224 
C 276.96497 170.956626 277.121702 179.791956 279.618626 188.097025 
C 282.11555 196.402094 286.857089 203.858999 293.318828 209.643005 
C 297.014378 206.58926 301.448129 204.559281 306.174532 203.75706 
C 310.900935 202.954839 315.756184 203.408179 320.252375 205.071523 
C 323.822246 192.47399 325.156068 179.347584 324.193162 166.289459 
C 323.230257 153.231335 319.98545 140.442556 314.606357 128.50492 
" clip-path="url(#p70ed15064f)" style="fill: #b25900; opacity: 0.4"/>
   </g>
   <g id="patch_5">
    <path d="M 293.442113 251.945843 
C 298.162537 255.800392 304.03768 257.970275 310.130349 258.109357 
C 316.223018 258.248438 322.191056 256.348906 327.082453 252.713772 
C 331.973849 249.078637 335.513908 243.912044 337.137927 238.03816 
C 338.761945 232.164275 338.37872 225.912968 336.049382 220.281436 
C 332.545003 221.146823 328.952774 221.606737 325.343411 221.652124 
C 321.734047 221.697512 318.131389 221.328073 314.606357 220.55108 
C 311.999865 226.335579 308.906675 231.888211 305.360165 237.149056 
C 301.813656 242.409902 297.82663 247.35997 293.442113 251.945843 
" clip-path="url(#p70ed15064f)" style="fill: #0000ff; opacity: 0.4"/>
   </g>
   <g id="patch_6">
    <path d="M 293.442113 251.945843 
C 297.82663 247.35997 301.813656 242.409902 305.360165 237.149056 
C 308.906675 231.888211 311.999865 226.335579 314.606357 220.55108 
C 310.664782 219.682273 306.851096 218.310698 303.259033 216.470066 
C 299.666969 214.629435 296.326199 212.33495 293.318828 209.643005 
C 290.200515 212.219761 287.691824 215.45601 285.973777 219.118231 
C 284.255731 222.780452 283.37067 226.77839 283.382459 230.823561 
C 283.394248 234.868733 284.302596 238.861443 286.041959 242.513589 
C 287.781322 246.165734 290.308833 249.387306 293.442113 251.945843 
" clip-path="url(#p70ed15064f)" style="fill: #b200b2; opacity: 0.4"/>
   </g>
   <g id="patch_7">
    <path d="M 320.252375 205.071523 
C 319.502887 207.716351 318.656304 210.332696 317.714345 212.915245 
C 316.772385 215.497794 315.735687 218.044796 314.606357 220.55108 
C 318.131389 221.328073 321.734047 221.697512 325.343411 221.652124 
C 328.952774 221.606737 332.545003 221.146823 336.049382 220.281436 
C 334.607018 216.794298 332.458997 213.642812 329.740576 211.025421 
C 327.022155 208.40803 323.791614 206.380848 320.252375 205.071523 
" clip-path="url(#p70ed15064f)" style="fill: #0059b2; opacity: 0.4"/>
   </g>
   <g id="patch_8">
    <path d="M 293.318828 209.643005 
C 296.326199 212.33495 299.666969 214.629435 303.259033 216.470066 
C 306.851096 218.310698 310.664782 219.682273 314.606357 220.55108 
C 315.735687 218.044796 316.772385 215.497794 317.714345 212.915245 
C 318.656304 210.332696 319.502887 207.716351 320.252375 205.071523 
C 315.756184 203.408179 310.900935 202.954839 306.174532 203.75706 
C 301.448129 204.559281 297.014378 206.58926 293.318828 209.643005 
" clip-path="url(#p70ed15064f)" style="fill: #663366; opacity: 0.4"/>
   </g>
   <g id="text_1">
    <!-- 842 -->
    <g transform="translate(170.779887 174.714467)scale(0.1 -0.1)">
     <defs>
      <path id="DejaVuSans-38" d="M 2034 2216 
Q 1584 2216 1326 1975 
Q 1069 1734 1069 1313 
Q 1069 891 1326 650 
Q 1584 409 2034 409 
Q 2484 409 2743 651 
Q 3003 894 3003 1313 
Q 3003 1734 2745 1975 
Q 2488 2216 2034 2216 
z
M 1403 2484 
Q 997 2584 770 2862 
Q 544 3141 544 3541 
Q 544 4100 942 4425 
Q 1341 4750 2034 4750 
Q 2731 4750 3128 4425 
Q 3525 4100 3525 3541 
Q 3525 3141 3298 2862 
Q 3072 2584 2669 2484 
Q 3125 2378 3379 2068 
Q 3634 1759 3634 1313 
Q 3634 634 3220 271 
Q 2806 -91 2034 -91 
Q 1263 -91 848 271 
Q 434 634 434 1313 
Q 434 1759 690 2068 
Q 947 2378 1403 2484 
z
M 1172 3481 
Q 1172 3119 1398 2916 
Q 1625 2713 2034 2713 
Q 2441 2713 2670 2916 
Q 2900 3119 2900 3481 
Q 2900 3844 2670 4047 
Q 2441 4250 2034 4250 
Q 1625 4250 1398 4047 
Q 1172 3844 1172 3481 
z
" transform="scale(0.015625)"/>
      <path id="DejaVuSans-34" d="M 2419 4116 
L 825 1625 
L 2419 1625 
L 2419 4116 
z
M 2253 4666 
L 3047 4666 
L 3047 1625 
L 3713 1625 
L 3713 1100 
L 3047 1100 
L 3047 0 
L 2419 0 
L 2419 1100 
L 313 1100 
L 313 1709 
L 2253 4666 
z
" transform="scale(0.015625)"/>
      <path id="DejaVuSans-32" d="M 1228 531 
L 3431 531 
L 3431 0 
L 469 0 
L 469 531 
Q 828 903 1448 1529 
Q 2069 2156 2228 2338 
Q 2531 2678 2651 2914 
Q 2772 3150 2772 3378 
Q 2772 3750 2511 3984 
Q 2250 4219 1831 4219 
Q 1534 4219 1204 4116 
Q 875 4013 500 3803 
L 500 4441 
Q 881 4594 1212 4672 
Q 1544 4750 1819 4750 
Q 2544 4750 2975 4387 
Q 3406 4025 3406 3419 
Q 3406 3131 3298 2873 
Q 3191 2616 2906 2266 
Q 2828 2175 2409 1742 
Q 1991 1309 1228 531 
z
" transform="scale(0.015625)"/>
     </defs>
     <use xlink:href="#DejaVuSans-38"/>
     <use xlink:href="#DejaVuSans-34" x="63.623047"/>
     <use xlink:href="#DejaVuSans-32" x="127.246094"/>
    </g>
   </g>
   <g id="text_2">
    <!-- 83 -->
    <g transform="translate(350.012437 175.327386)scale(0.1 -0.1)">
     <defs>
      <path id="DejaVuSans-33" d="M 2597 2516 
Q 3050 2419 3304 2112 
Q 3559 1806 3559 1356 
Q 3559 666 3084 287 
Q 2609 -91 1734 -91 
Q 1441 -91 1130 -33 
Q 819 25 488 141 
L 488 750 
Q 750 597 1062 519 
Q 1375 441 1716 441 
Q 2309 441 2620 675 
Q 2931 909 2931 1356 
Q 2931 1769 2642 2001 
Q 2353 2234 1838 2234 
L 1294 2234 
L 1294 2753 
L 1863 2753 
Q 2328 2753 2575 2939 
Q 2822 3125 2822 3475 
Q 2822 3834 2567 4026 
Q 2313 4219 1838 4219 
Q 1578 4219 1281 4162 
Q 984 4106 628 3988 
L 628 4550 
Q 988 4650 1302 4700 
Q 1616 4750 1894 4750 
Q 2613 4750 3031 4423 
Q 3450 4097 3450 3541 
Q 3450 3153 3228 2886 
Q 3006 2619 2597 2516 
z
" transform="scale(0.015625)"/>
     </defs>
     <use xlink:href="#DejaVuSans-38"/>
     <use xlink:href="#DejaVuSans-33" x="63.623047"/>
    </g>
   </g>
   <g id="text_3">
    <!-- 71 -->
    <g transform="translate(287.964269 176.914999)scale(0.1 -0.1)">
     <defs>
      <path id="DejaVuSans-37" d="M 525 4666 
L 3525 4666 
L 3525 4397 
L 1831 0 
L 1172 0 
L 2766 4134 
L 525 4134 
L 525 4666 
z
" transform="scale(0.015625)"/>
      <path id="DejaVuSans-31" d="M 794 531 
L 1825 531 
L 1825 4091 
L 703 3866 
L 703 4441 
L 1819 4666 
L 2450 4666 
L 2450 531 
L 3481 531 
L 3481 0 
L 794 0 
L 794 531 
z
" transform="scale(0.015625)"/>
     </defs>
     <use xlink:href="#DejaVuSans-37"/>
     <use xlink:href="#DejaVuSans-31" x="63.623047"/>
    </g>
   </g>
   <g id="text_4">
    <!-- 23 -->
    <g transform="translate(318.347843 249.802097)scale(0.1 -0.1)">
     <use xlink:href="#DejaVuSans-32"/>
     <use xlink:href="#DejaVuSans-33" x="63.623047"/>
    </g>
   </g>
   <g id="text_5">
    <!-- 21 -->
    <g transform="translate(283.764332 231.590781)scale(0.1 -0.1)">
     <use xlink:href="#DejaVuSans-32"/>
     <use xlink:href="#DejaVuSans-31" x="63.623047"/>
    </g>
   </g>
   <g id="text_6">
    <!-- 8 -->
    <g transform="translate(323.910698 217.389341)scale(0.1 -0.1)">
     <use xlink:href="#DejaVuSans-38"/>
    </g>
   </g>
   <g id="text_7">
    <!-- 4 -->
    <g transform="translate(303.11215 211.132641)scale(0.1 -0.1)">
     <use xlink:href="#DejaVuSans-34"/>
    </g>
   </g>
   <g id="text_8">
    <!-- A -->
    <g transform="translate(148.246367 62.500408)scale(0.12 -0.12)">
     <defs>
      <path id="DejaVuSans-41" d="M 2188 4044 
L 1331 1722 
L 3047 1722 
L 2188 4044 
z
M 1831 4666 
L 2547 4666 
L 4325 0 
L 3669 0 
L 3244 1197 
L 1141 1197 
L 716 0 
L 50 0 
L 1831 4666 
z
" transform="scale(0.015625)"/>
     </defs>
     <use xlink:href="#DejaVuSans-41"/>
    </g>
   </g>
   <g id="text_9">
    <!-- B -->
    <g transform="translate(348.314754 127.40015)scale(0.12 -0.12)">
     <defs>
      <path id="DejaVuSans-42" d="M 1259 2228 
L 1259 519 
L 2272 519 
Q 2781 519 3026 730 
Q 3272 941 3272 1375 
Q 3272 1813 3026 2020 
Q 2781 2228 2272 2228 
L 1259 2228 
z
M 1259 4147 
L 1259 2741 
L 2194 2741 
Q 2656 2741 2882 2914 
Q 3109 3088 3109 3444 
Q 3109 3797 2882 3972 
Q 2656 4147 2194 4147 
L 1259 4147 
z
M 628 4666 
L 2241 4666 
Q 2963 4666 3353 4366 
Q 3744 4066 3744 3513 
Q 3744 3084 3544 2831 
Q 3344 2578 2956 2516 
Q 3422 2416 3680 2098 
Q 3938 1781 3938 1306 
Q 3938 681 3513 340 
Q 3088 0 2303 0 
L 628 0 
L 628 4666 
z
" transform="scale(0.015625)"/>
     </defs>
     <use xlink:href="#DejaVuSans-42"/>
    </g>
   </g>
   <g id="text_10">
    <!-- C -->
    <g transform="translate(306.565353 269.971881)scale(0.12 -0.12)">
     <defs>
      <path id="DejaVuSans-43" d="M 4122 4306 
L 4122 3641 
Q 3803 3938 3442 4084 
Q 3081 4231 2675 4231 
Q 1875 4231 1450 3742 
Q 1025 3253 1025 2328 
Q 1025 1406 1450 917 
Q 1875 428 2675 428 
Q 3081 428 3442 575 
Q 3803 722 4122 1019 
L 4122 359 
Q 3791 134 3420 21 
Q 3050 -91 2638 -91 
Q 1578 -91 968 557 
Q 359 1206 359 2328 
Q 359 3453 968 4101 
Q 1578 4750 2638 4750 
Q 3056 4750 3426 4639 
Q 3797 4528 4122 4306 
z
" transform="scale(0.015625)"/>
     </defs>
     <use xlink:href="#DejaVuSans-43"/>
    </g>
   </g>
  </g>
 </g>
 <defs>
  <clipPath id="p70ed15064f">
   <rect x="79.412913" y="41.472" width="313.494174" height="266.112"/>
  </clipPath>
 </defs>
</svg>
