<?xml version="1.0" encoding="utf-8" standalone="no"?>
<!DOCTYPE svg PUBLIC "-//W3C//DTD SVG 1.1//EN"
  "http://www.w3.org/Graphics/SVG/1.1/DTD/svg11.dtd">
<svg xmlns:xlink="http://www.w3.org/1999/xlink" width="460.8pt" height="345.6pt" viewBox="0 0 460.8 345.6" xmlns="http://www.w3.org/2000/svg" version="1.1">
 <metadata>
  <rdf:RDF xmlns:dc="http://purl.org/dc/elements/1.1/" xmlns:cc="http://creativecommons.org/ns#" xmlns:rdf="http://www.w3.org/1999/02/22-rdf-syntax-ns#">
   <cc:Work>
    <dc:type rdf:resource="http://purl.org/dc/dcmitype/StillImage"/>
    <dc:date>2022-01-18T17:59:49.240362</dc:date>
    <dc:format>image/svg+xml</dc:format>
    <dc:creator>
     <cc:Agent>
      <dc:title>Matplotlib v3.5.1, https://matplotlib.org/</dc:title>
     </cc:Agent>
    </dc:creator>
   </cc:Work>
  </rdf:RDF>
 </metadata>
 <defs>
  <style type="text/css">*{stroke-linejoin: round; stroke-linecap: butt}</style>
 </defs>
 <g id="figure_1">
  <g id="patch_1">
   <path d="M 0 345.6 
L 460.8 345.6 
L 460.8 0 
L 0 0 
z
" style="fill: #ffffff"/>
  </g>
  <g id="axes_1">
   <g id="patch_2">
    <path d="M 260.790574 86.436359 
C 250.271943 76.397194 237.467287 69.065983 223.48461 65.077105 
C 209.501932 61.088227 194.756525 60.560154 180.52433 63.53858 
C 166.292134 66.517007 152.995853 72.913472 141.78603 82.174482 
C 130.576208 91.435492 121.785782 103.28599 116.1754 116.700535 
C 110.565019 130.115081 108.301312 144.695256 109.580162 159.179419 
C 110.859011 173.663581 115.642435 187.621544 123.516517 199.845506 
C 131.390599 212.069468 142.121476 222.196372 154.780588 229.349923 
C 167.439701 236.503473 181.651069 240.471206 196.184962 240.909789 
C 192.514804 227.910959 193.061583 214.076916 197.746225 201.408302 
C 202.430867 188.739689 211.016107 177.878134 222.260372 170.394409 
C 217.75954 154.107317 219.157268 136.742095 226.205179 121.384563 
C 233.253089 106.02703 245.507424 93.644145 260.790574 86.436359 
" clip-path="url(#p007ede5545)" style="fill: #ff0000; opacity: 0.4"/>
   </g>
   <g id="patch_3">
    <path d="M 260.790574 86.436359 
C 271.481034 96.639521 279.484816 109.329309 284.087123 123.372429 
C 288.68943 137.415549 289.749051 152.381124 287.171355 166.932617 
C 296.466971 171.77998 304.42751 178.842562 310.347633 187.494589 
C 316.267756 196.146615 319.967294 206.124774 321.118451 216.54496 
C 329.722904 212.62324 337.467268 207.038008 343.904691 200.111531 
C 350.342114 193.185055 355.346354 185.053168 358.628664 176.185083 
C 361.910974 167.316998 363.406986 157.886624 363.030379 148.438097 
C 362.653772 138.98957 360.411932 129.708182 356.434214 121.129473 
C 352.456496 112.550764 346.820906 104.842968 339.852619 98.450827 
C 332.884332 92.058686 324.720001 87.107554 315.830711 83.883114 
C 306.941421 80.658675 297.501496 79.22416 288.055625 79.662342 
C 278.609754 80.100525 269.343175 82.402811 260.790574 86.436359 
" clip-path="url(#p007ede5545)" style="fill: #008000; opacity: 0.4"/>
   </g>
   <g id="patch_4">
    <path d="M 260.790574 86.436359 
C 245.507424 93.644145 233.253089 106.02703 226.205179 121.384563 
C 219.157268 136.742095 217.75954 154.107317 222.260372 170.394409 
C 231.778402 164.059595 242.825272 160.395613 254.242452 159.786719 
C 265.659632 159.177825 277.033542 161.646076 287.171355 166.932617 
C 289.749051 152.381124 288.68943 137.415549 284.087123 123.372429 
C 279.484816 109.329309 271.481034 96.639521 260.790574 86.436359 
" clip-path="url(#p007ede5545)" style="fill: #b25900; opacity: 0.4"/>
   </g>
   <g id="patch_5">
    <path d="M 196.184962 240.909789 
C 200.538021 256.327295 210.537066 269.556107 224.182112 277.950231 
C 237.827158 286.344355 254.143468 289.304155 269.867493 286.237618 
C 285.591517 283.17108 299.600007 274.297266 309.091018 261.391092 
C 318.582029 248.484918 322.877567 232.468342 321.118451 216.54496 
C 311.638276 220.865813 301.329349 223.069176 290.911149 223.001271 
C 280.49295 222.933366 270.21362 220.59581 260.790574 216.151746 
C 252.198791 224.351894 242.062602 230.76365 230.97215 235.013712 
C 219.881698 239.263775 208.056475 241.268031 196.184962 240.909789 
" clip-path="url(#p007ede5545)" style="fill: #0000ff; opacity: 0.4"/>
   </g>
   <g id="patch_6">
    <path d="M 196.184962 240.909789 
C 208.056475 241.268031 219.881698 239.263775 230.97215 235.013712 
C 242.062602 230.76365 252.198791 224.351894 260.790574 216.151746 
C 251.453204 211.748089 243.175987 205.379512 236.526358 197.482608 
C 229.876729 189.585703 225.010194 180.345145 222.260372 170.394409 
C 211.016107 177.878134 202.430867 188.739689 197.746225 201.408302 
C 193.061583 214.076916 192.514804 227.910959 196.184962 240.909789 
" clip-path="url(#p007ede5545)" style="fill: #b200b2; opacity: 0.4"/>
   </g>
   <g id="patch_7">
    <path d="M 287.171355 166.932617 
C 285.517021 176.271582 282.391227 185.289162 277.910742 193.648489 
C 273.430257 202.007816 267.651577 209.603485 260.790574 216.151746 
C 270.21362 220.59581 280.49295 222.933366 290.911149 223.001271 
C 301.329349 223.069176 311.638276 220.865813 321.118451 216.54496 
C 319.967294 206.124774 316.267756 196.146615 310.347633 187.494589 
C 304.42751 178.842562 296.466971 171.77998 287.171355 166.932617 
" clip-path="url(#p007ede5545)" style="fill: #0059b2; opacity: 0.4"/>
   </g>
   <g id="patch_8">
    <path d="M 222.260372 170.394409 
C 225.010194 180.345145 229.876729 189.585703 236.526358 197.482608 
C 243.175987 205.379512 251.453204 211.748089 260.790574 216.151746 
C 267.651577 209.603485 273.430257 202.007816 277.910742 193.648489 
C 282.391227 185.289162 285.517021 176.271582 287.171355 166.932617 
C 277.033542 161.646076 265.659632 159.177825 254.242452 159.786719 
C 242.825272 160.395613 231.778402 164.059595 222.260372 170.394409 
" clip-path="url(#p007ede5545)" style="fill: #663366; opacity: 0.4"/>
   </g>
   <g id="text_1">
    <!-- 86 -->
    <g transform="translate(149.110105 136.787236)scale(0.1 -0.1)">
     <defs>
      <path id="DejaVuSans-38" d="M 2034 2216 
Q 1584 2216 1326 1975 
Q 1069 1734 1069 1313 
Q 1069 891 1326 650 
Q 1584 409 2034 409 
Q 2484 409 2743 651 
Q 3003 894 3003 1313 
Q 3003 1734 2745 1975 
Q 2488 2216 2034 2216 
z
M 1403 2484 
Q 997 2584 770 2862 
Q 544 3141 544 3541 
Q 544 4100 942 4425 
Q 1341 4750 2034 4750 
Q 2731 4750 3128 4425 
Q 3525 4100 3525 3541 
Q 3525 3141 3298 2862 
Q 3072 2584 2669 2484 
Q 3125 2378 3379 2068 
Q 3634 1759 3634 1313 
Q 3634 634 3220 271 
Q 2806 -91 2034 -91 
Q 1263 -91 848 271 
Q 434 634 434 1313 
Q 434 1759 690 2068 
Q 947 2378 1403 2484 
z
M 1172 3481 
Q 1172 3119 1398 2916 
Q 1625 2713 2034 2713 
Q 2441 2713 2670 2916 
Q 2900 3119 2900 3481 
Q 2900 3844 2670 4047 
Q 2441 4250 2034 4250 
Q 1625 4250 1398 4047 
Q 1172 3844 1172 3481 
z
" transform="scale(0.015625)"/>
      <path id="DejaVuSans-36" d="M 2113 2584 
Q 1688 2584 1439 2293 
Q 1191 2003 1191 1497 
Q 1191 994 1439 701 
Q 1688 409 2113 409 
Q 2538 409 2786 701 
Q 3034 994 3034 1497 
Q 3034 2003 2786 2293 
Q 2538 2584 2113 2584 
z
M 3366 4563 
L 3366 3988 
Q 3128 4100 2886 4159 
Q 2644 4219 2406 4219 
Q 1781 4219 1451 3797 
Q 1122 3375 1075 2522 
Q 1259 2794 1537 2939 
Q 1816 3084 2150 3084 
Q 2853 3084 3261 2657 
Q 3669 2231 3669 1497 
Q 3669 778 3244 343 
Q 2819 -91 2113 -91 
Q 1303 -91 875 529 
Q 447 1150 447 2328 
Q 447 3434 972 4092 
Q 1497 4750 2381 4750 
Q 2619 4750 2861 4703 
Q 3103 4656 3366 4563 
z
" transform="scale(0.015625)"/>
     </defs>
     <use xlink:href="#DejaVuSans-38"/>
     <use xlink:href="#DejaVuSans-36" x="63.623047"/>
    </g>
   </g>
   <g id="text_2">
    <!-- 41 -->
    <g transform="translate(327.339327 137.027033)scale(0.1 -0.1)">
     <defs>
      <path id="DejaVuSans-34" d="M 2419 4116 
L 825 1625 
L 2419 1625 
L 2419 4116 
z
M 2253 4666 
L 3047 4666 
L 3047 1625 
L 3713 1625 
L 3713 1100 
L 3047 1100 
L 3047 0 
L 2419 0 
L 2419 1100 
L 313 1100 
L 313 1709 
L 2253 4666 
z
" transform="scale(0.015625)"/>
      <path id="DejaVuSans-31" d="M 794 531 
L 1825 531 
L 1825 4091 
L 703 3866 
L 703 4441 
L 1819 4666 
L 2450 4666 
L 2450 531 
L 3481 531 
L 3481 0 
L 794 0 
L 794 531 
z
" transform="scale(0.015625)"/>
     </defs>
     <use xlink:href="#DejaVuSans-34"/>
     <use xlink:href="#DejaVuSans-31" x="63.623047"/>
    </g>
   </g>
   <g id="text_3">
    <!-- 23 -->
    <g transform="translate(245.018691 136.591846)scale(0.1 -0.1)">
     <defs>
      <path id="DejaVuSans-32" d="M 1228 531 
L 3431 531 
L 3431 0 
L 469 0 
L 469 531 
Q 828 903 1448 1529 
Q 2069 2156 2228 2338 
Q 2531 2678 2651 2914 
Q 2772 3150 2772 3378 
Q 2772 3750 2511 3984 
Q 2250 4219 1831 4219 
Q 1534 4219 1204 4116 
Q 875 4013 500 3803 
L 500 4441 
Q 881 4594 1212 4672 
Q 1544 4750 1819 4750 
Q 2544 4750 2975 4387 
Q 3406 4025 3406 3419 
Q 3406 3131 3298 2873 
Q 3191 2616 2906 2266 
Q 2828 2175 2409 1742 
Q 1991 1309 1228 531 
z
" transform="scale(0.015625)"/>
      <path id="DejaVuSans-33" d="M 2597 2516 
Q 3050 2419 3304 2112 
Q 3559 1806 3559 1356 
Q 3559 666 3084 287 
Q 2609 -91 1734 -91 
Q 1441 -91 1130 -33 
Q 819 25 488 141 
L 488 750 
Q 750 597 1062 519 
Q 1375 441 1716 441 
Q 2309 441 2620 675 
Q 2931 909 2931 1356 
Q 2931 1769 2642 2001 
Q 2353 2234 1838 2234 
L 1294 2234 
L 1294 2753 
L 1863 2753 
Q 2328 2753 2575 2939 
Q 2822 3125 2822 3475 
Q 2822 3834 2567 4026 
Q 2313 4219 1838 4219 
Q 1578 4219 1281 4162 
Q 984 4106 628 3988 
L 628 4550 
Q 988 4650 1302 4700 
Q 1616 4750 1894 4750 
Q 2613 4750 3031 4423 
Q 3450 4097 3450 3541 
Q 3450 3153 3228 2886 
Q 3006 2619 2597 2516 
z
" transform="scale(0.015625)"/>
     </defs>
     <use xlink:href="#DejaVuSans-32"/>
     <use xlink:href="#DejaVuSans-33" x="63.623047"/>
    </g>
   </g>
   <g id="text_4">
    <!-- 30 -->
    <g transform="translate(260.800274 268.40355)scale(0.1 -0.1)">
     <defs>
      <path id="DejaVuSans-30" d="M 2034 4250 
Q 1547 4250 1301 3770 
Q 1056 3291 1056 2328 
Q 1056 1369 1301 889 
Q 1547 409 2034 409 
Q 2525 409 2770 889 
Q 3016 1369 3016 2328 
Q 3016 3291 2770 3770 
Q 2525 4250 2034 4250 
z
M 2034 4750 
Q 2819 4750 3233 4129 
Q 3647 3509 3647 2328 
Q 3647 1150 3233 529 
Q 2819 -91 2034 -91 
Q 1250 -91 836 529 
Q 422 1150 422 2328 
Q 422 3509 836 4129 
Q 1250 4750 2034 4750 
z
" transform="scale(0.015625)"/>
     </defs>
     <use xlink:href="#DejaVuSans-33"/>
     <use xlink:href="#DejaVuSans-30" x="63.623047"/>
    </g>
   </g>
   <g id="text_5">
    <!-- 16 -->
    <g transform="translate(211.886423 212.151822)scale(0.1 -0.1)">
     <use xlink:href="#DejaVuSans-31"/>
     <use xlink:href="#DejaVuSans-36" x="63.623047"/>
    </g>
   </g>
   <g id="text_6">
    <!-- 12 -->
    <g transform="translate(288.906435 204.247502)scale(0.1 -0.1)">
     <use xlink:href="#DejaVuSans-31"/>
     <use xlink:href="#DejaVuSans-32" x="63.623047"/>
    </g>
   </g>
   <g id="text_7">
    <!-- 11 -->
    <g transform="translate(247.781062 183.58014)scale(0.1 -0.1)">
     <use xlink:href="#DejaVuSans-31"/>
     <use xlink:href="#DejaVuSans-31" x="63.623047"/>
    </g>
   </g>
   <g id="text_8">
    <!-- A -->
    <g transform="translate(145.852241 61.637522)scale(0.12 -0.12)">
     <defs>
      <path id="DejaVuSans-41" d="M 2188 4044 
L 1331 1722 
L 3047 1722 
L 2188 4044 
z
M 1831 4666 
L 2547 4666 
L 4325 0 
L 3669 0 
L 3244 1197 
L 1141 1197 
L 716 0 
L 50 0 
L 1831 4666 
z
" transform="scale(0.015625)"/>
     </defs>
     <use xlink:href="#DejaVuSans-41"/>
    </g>
   </g>
   <g id="text_9">
    <!-- B -->
    <g transform="translate(327.232903 79.585311)scale(0.12 -0.12)">
     <defs>
      <path id="DejaVuSans-42" d="M 1259 2228 
L 1259 519 
L 2272 519 
Q 2781 519 3026 730 
Q 3272 941 3272 1375 
Q 3272 1813 3026 2020 
Q 2781 2228 2272 2228 
L 1259 2228 
z
M 1259 4147 
L 1259 2741 
L 2194 2741 
Q 2656 2741 2882 2914 
Q 3109 3088 3109 3444 
Q 3109 3797 2882 3972 
Q 2656 4147 2194 4147 
L 1259 4147 
z
M 628 4666 
L 2241 4666 
Q 2963 4666 3353 4366 
Q 3744 4066 3744 3513 
Q 3744 3084 3544 2831 
Q 3344 2578 2956 2516 
Q 3422 2416 3680 2098 
Q 3938 1781 3938 1306 
Q 3938 681 3513 340 
Q 3088 0 2303 0 
L 628 0 
L 628 4666 
z
" transform="scale(0.015625)"/>
     </defs>
     <use xlink:href="#DejaVuSans-42"/>
    </g>
   </g>
   <g id="text_10">
    <!-- C -->
    <g transform="translate(253.453736 302.922722)scale(0.12 -0.12)">
     <defs>
      <path id="DejaVuSans-43" d="M 4122 4306 
L 4122 3641 
Q 3803 3938 3442 4084 
Q 3081 4231 2675 4231 
Q 1875 4231 1450 3742 
Q 1025 3253 1025 2328 
Q 1025 1406 1450 917 
Q 1875 428 2675 428 
Q 3081 428 3442 575 
Q 3803 722 4122 1019 
L 4122 359 
Q 3791 134 3420 21 
Q 3050 -91 2638 -91 
Q 1578 -91 968 557 
Q 359 1206 359 2328 
Q 359 3453 968 4101 
Q 1578 4750 2638 4750 
Q 3056 4750 3426 4639 
Q 3797 4528 4122 4306 
z
" transform="scale(0.015625)"/>
     </defs>
     <use xlink:href="#DejaVuSans-43"/>
    </g>
   </g>
  </g>
 </g>
 <defs>
  <clipPath id="p007ede5545">
   <rect x="89.067204" y="41.472" width="294.185592" height="266.112"/>
  </clipPath>
 </defs>
</svg>
