<?xml version="1.0" encoding="UTF-8" standalone="no"?>
<!-- Created with Inkscape (http://www.inkscape.org/) -->

<svg
   width="90.848618mm"
   height="67.833351mm"
   viewBox="0 0 90.848618 67.833351"
   version="1.1"
   id="svg5"
   inkscape:version="1.3 (0e150ed6c4, 2023-07-21)"
   xml:space="preserve"
   sodipodi:docname="betadivovertime.svg"
   inkscape:export-filename="betadivovertime.png"
   inkscape:export-xdpi="500"
   inkscape:export-ydpi="500"
   xmlns:inkscape="http://www.inkscape.org/namespaces/inkscape"
   xmlns:sodipodi="http://sodipodi.sourceforge.net/DTD/sodipodi-0.dtd"
   xmlns:xlink="http://www.w3.org/1999/xlink"
   xmlns="http://www.w3.org/2000/svg"
   xmlns:svg="http://www.w3.org/2000/svg"><sodipodi:namedview
     id="namedview7"
     pagecolor="#ffffff"
     bordercolor="#999999"
     borderopacity="1"
     inkscape:showpageshadow="0"
     inkscape:pageopacity="0"
     inkscape:pagecheckerboard="0"
     inkscape:deskcolor="#d1d1d1"
     inkscape:document-units="in"
     showgrid="false"
     inkscape:zoom="1.0888561"
     inkscape:cx="4.5919752"
     inkscape:cy="48.21574"
     inkscape:window-width="1916"
     inkscape:window-height="1054"
     inkscape:window-x="1920"
     inkscape:window-y="0"
     inkscape:window-maximized="1"
     inkscape:current-layer="layer1" /><defs
     id="defs2"><style
       type="text/css"
       id="style1">*{stroke-linejoin: round; stroke-linecap: butt}</style><path
       id="m5f8f4a4c87"
       d="M 0,0 V 6"
       style="stroke:#000000;stroke-width:0.25" /><path
       id="m1b89a6838b"
       d="M 0,0 H -6"
       style="stroke:#000000;stroke-width:0.25" /><path
       id="C0_0_c31d6b3400"
       d="M 0,1 C 0.265203,1 0.51958,0.894634 0.707107,0.707107 0.894634,0.51958 1,0.265203 1,0 1,-0.265203 0.894634,-0.51958 0.707107,-0.707107 0.51958,-0.894634 0.265203,-1 0,-1 -0.265203,-1 -0.51958,-0.894634 -0.707107,-0.707107 -0.894634,-0.51958 -1,-0.265203 -1,0 -1,0.265203 -0.894634,0.51958 -0.707107,0.707107 -0.51958,0.894634 -0.265203,1 0,1 Z" /><path
       id="C1_0_913bc76759"
       d="M 0,1 C 0.265203,1 0.51958,0.894634 0.707107,0.707107 0.894634,0.51958 1,0.265203 1,0 1,-0.265203 0.894634,-0.51958 0.707107,-0.707107 0.51958,-0.894634 0.265203,-1 0,-1 -0.265203,-1 -0.51958,-0.894634 -0.707107,-0.707107 -0.894634,-0.51958 -1,-0.265203 -1,0 -1,0.265203 -0.894634,0.51958 -0.707107,0.707107 -0.51958,0.894634 -0.265203,1 0,1 Z" /><path
       id="C2_0_2bd57a95c9"
       d="M 0,1 C 0.265203,1 0.51958,0.894634 0.707107,0.707107 0.894634,0.51958 1,0.265203 1,0 1,-0.265203 0.894634,-0.51958 0.707107,-0.707107 0.51958,-0.894634 0.265203,-1 0,-1 -0.265203,-1 -0.51958,-0.894634 -0.707107,-0.707107 -0.894634,-0.51958 -1,-0.265203 -1,0 -1,0.265203 -0.894634,0.51958 -0.707107,0.707107 -0.51958,0.894634 -0.265203,1 0,1 Z" /><path
       id="C3_0_98938e4995"
       d="M 0,1 C 0.265203,1 0.51958,0.894634 0.707107,0.707107 0.894634,0.51958 1,0.265203 1,0 1,-0.265203 0.894634,-0.51958 0.707107,-0.707107 0.51958,-0.894634 0.265203,-1 0,-1 -0.265203,-1 -0.51958,-0.894634 -0.707107,-0.707107 -0.894634,-0.51958 -1,-0.265203 -1,0 -1,0.265203 -0.894634,0.51958 -0.707107,0.707107 -0.51958,0.894634 -0.265203,1 0,1 Z" /><path
       id="C4_0_203079dca0"
       d="M 0,1 C 0.265203,1 0.51958,0.894634 0.707107,0.707107 0.894634,0.51958 1,0.265203 1,0 1,-0.265203 0.894634,-0.51958 0.707107,-0.707107 0.51958,-0.894634 0.265203,-1 0,-1 -0.265203,-1 -0.51958,-0.894634 -0.707107,-0.707107 -0.894634,-0.51958 -1,-0.265203 -1,0 -1,0.265203 -0.894634,0.51958 -0.707107,0.707107 -0.51958,0.894634 -0.265203,1 0,1 Z" /><path
       id="C5_0_3305db638e"
       d="M 0,1 C 0.265203,1 0.51958,0.894634 0.707107,0.707107 0.894634,0.51958 1,0.265203 1,0 1,-0.265203 0.894634,-0.51958 0.707107,-0.707107 0.51958,-0.894634 0.265203,-1 0,-1 -0.265203,-1 -0.51958,-0.894634 -0.707107,-0.707107 -0.894634,-0.51958 -1,-0.265203 -1,0 -1,0.265203 -0.894634,0.51958 -0.707107,0.707107 -0.51958,0.894634 -0.265203,1 0,1 Z" /><path
       id="C6_0_aa3138f1ca"
       d="M 0,1 C 0.265203,1 0.51958,0.894634 0.707107,0.707107 0.894634,0.51958 1,0.265203 1,0 1,-0.265203 0.894634,-0.51958 0.707107,-0.707107 0.51958,-0.894634 0.265203,-1 0,-1 -0.265203,-1 -0.51958,-0.894634 -0.707107,-0.707107 -0.894634,-0.51958 -1,-0.265203 -1,0 -1,0.265203 -0.894634,0.51958 -0.707107,0.707107 -0.51958,0.894634 -0.265203,1 0,1 Z" /><path
       id="C7_0_dc1a5fdac6"
       d="M 0,1 C 0.265203,1 0.51958,0.894634 0.707107,0.707107 0.894634,0.51958 1,0.265203 1,0 1,-0.265203 0.894634,-0.51958 0.707107,-0.707107 0.51958,-0.894634 0.265203,-1 0,-1 -0.265203,-1 -0.51958,-0.894634 -0.707107,-0.707107 -0.894634,-0.51958 -1,-0.265203 -1,0 -1,0.265203 -0.894634,0.51958 -0.707107,0.707107 -0.51958,0.894634 -0.265203,1 0,1 Z" /><path
       id="m9569baa7b8"
       d="M 0,3 C 0.795609,3 1.55874,2.683901 2.12132,2.12132 2.683901,1.55874 3,0.795609 3,0 3,-0.795609 2.683901,-1.55874 2.12132,-2.12132 1.55874,-2.683901 0.795609,-3 0,-3 -0.795609,-3 -1.55874,-2.683901 -2.12132,-2.12132 -2.683901,-1.55874 -3,-0.795609 -3,0 -3,0.795609 -2.683901,1.55874 -2.12132,2.12132 -1.55874,2.683901 -0.795609,3 0,3 Z"
       style="stroke:#262626" /><path
       id="md735acc15e"
       d="M 0,3 C 0.795609,3 1.55874,2.683901 2.12132,2.12132 2.683901,1.55874 3,0.795609 3,0 3,-0.795609 2.683901,-1.55874 2.12132,-2.12132 1.55874,-2.683901 0.795609,-3 0,-3 -0.795609,-3 -1.55874,-2.683901 -2.12132,-2.12132 -2.683901,-1.55874 -3,-0.795609 -3,0 -3,0.795609 -2.683901,1.55874 -2.12132,2.12132 -1.55874,2.683901 -0.795609,3 0,3 Z"
       style="stroke:#333333" /><clipPath
       id="p1b150f7991"><rect
         x="27"
         y="25.92"
         width="167.39999"
         height="166.32001"
         id="rect120" /></clipPath></defs><g
     inkscape:label="Layer 1"
     inkscape:groupmode="layer"
     id="layer1"
     transform="translate(-51.014669,-43.232202)"><g
       id="figure_1"
       transform="matrix(0.34050974,0,0,0.34050974,54.377595,36.326329)"><g
         id="patch_1"><text
           xml:space="preserve"
           style="font-weight:bold;font-size:7px;font-family:Arial;-inkscape-font-specification:'Arial, Bold';fill:#191919;fill-rule:evenodd;stroke-width:0.56"
           x="75.298714"
           y="166.77429"
           id="text52"><tspan
             sodipodi:role="line"
             id="tspan52"
             style="font-weight:normal;stroke-width:0.56"
             x="75.298714"
             y="166.77429">p=0.0003</tspan></text><text
           xml:space="preserve"
           style="font-weight:bold;font-size:7px;font-family:Arial;-inkscape-font-specification:'Arial, Bold';fill:#191919;fill-rule:evenodd;stroke-width:0.56"
           x="117.30726"
           y="166.77429"
           id="text53"><tspan
             sodipodi:role="line"
             id="tspan53"
             style="font-weight:normal;stroke-width:0.56"
             x="117.30726"
             y="166.77429">p=0.1600</tspan></text><text
           xml:space="preserve"
           style="font-weight:bold;font-size:7px;font-family:Arial;-inkscape-font-specification:'Arial, Bold';fill:#191919;fill-rule:evenodd;stroke-width:0.56"
           x="159.29872"
           y="166.77429"
           id="text54"><tspan
             sodipodi:role="line"
             id="tspan54"
             style="font-weight:normal;stroke-width:0.56"
             x="159.29872"
             y="166.77429">p=0.5209</tspan></text></g><g
         id="axes_1"><g
           id="patch_2"><path
             d="M 27,192.24 H 194.4 V 25.92 H 27 Z"
             style="fill:none"
             id="path2" /></g><g
           id="matplotlib.axis_1"><g
             id="xtick_1"><g
               id="line2d_1"><defs
                 id="defs2-3"><path
                   id="path3"
                   d="M 0,0 V 6"
                   style="stroke:#000000;stroke-width:0.25" /></defs><g
                 id="g2"><use
                   xlink:href="#m5f8f4a4c87"
                   x="47.924999"
                   y="192.24001"
                   style="stroke:#000000;stroke-width:0.25"
                   id="use2" /></g></g><g
               id="text_1" /></g><g
             id="xtick_2"><g
               id="line2d_2"><g
                 id="g3"><use
                   xlink:href="#m5f8f4a4c87"
                   x="89.775002"
                   y="192.24001"
                   style="stroke:#000000;stroke-width:0.25"
                   id="use3" /></g></g><g
               id="text_2" /></g><g
             id="xtick_3"><g
               id="line2d_3"><g
                 id="g4"><use
                   xlink:href="#m5f8f4a4c87"
                   x="131.625"
                   y="192.24001"
                   style="stroke:#000000;stroke-width:0.25"
                   id="use4" /></g></g><g
               id="text_3" /></g><g
             id="xtick_4"><g
               id="line2d_4"><g
                 id="g5"><use
                   xlink:href="#m5f8f4a4c87"
                   x="173.47501"
                   y="192.24001"
                   style="stroke:#000000;stroke-width:0.25"
                   id="use5" /></g></g><g
               id="text_4" /></g><g
             id="text_5"><text
               style="font-style:normal;font-variant:normal;font-weight:normal;font-stretch:normal;font-size:7px;line-height:normal;font-family:Arial;text-anchor:middle"
               x="110.7"
               y="214.91095"
               id="text6">Days after treatment</text></g></g><g
           id="matplotlib.axis_2"><g
             id="ytick_1"><g
               id="line2d_5"><defs
                 id="defs6"><path
                   id="path4"
                   d="M 0,0 H -6"
                   style="stroke:#000000;stroke-width:0.25" /></defs><g
                 id="g6"><use
                   xlink:href="#m1b89a6838b"
                   x="27"
                   y="184.67999"
                   style="stroke:#000000;stroke-width:0.25"
                   id="use6" /></g></g><g
               id="text_6"><text
                 style="font-style:normal;font-variant:normal;font-weight:normal;font-stretch:normal;font-size:7px;line-height:normal;font-family:Arial;text-anchor:end"
                 x="15"
                 y="187.18523"
                 id="text7">0.0</text><text
                 style="font-style:normal;font-variant:normal;font-weight:normal;font-stretch:normal;font-size:7px;line-height:normal;font-family:Arial;text-anchor:end"
                 x="49.832176"
                 y="204.83414"
                 id="text55">0</text><text
                 style="font-style:normal;font-variant:normal;font-weight:normal;font-stretch:normal;font-size:7px;line-height:normal;font-family:Arial;text-anchor:end"
                 x="91.594025"
                 y="204.85091"
                 id="text56">7</text><text
                 style="font-style:normal;font-variant:normal;font-weight:normal;font-stretch:normal;font-size:7px;line-height:normal;font-family:Arial;text-anchor:end"
                 x="135.78387"
                 y="204.9368"
                 id="text57">30</text><text
                 style="font-style:normal;font-variant:normal;font-weight:normal;font-stretch:normal;font-size:7px;line-height:normal;font-family:Arial;text-anchor:end"
                 x="177.57108"
                 y="204.83414"
                 id="text58">90</text></g></g><g
             id="ytick_2"><g
               id="line2d_6"><g
                 id="g7"><use
                   xlink:href="#m1b89a6838b"
                   x="27"
                   y="153.06932"
                   style="stroke:#000000;stroke-width:0.25"
                   id="use7" /></g></g><g
               id="text_7"><text
                 style="font-style:normal;font-variant:normal;font-weight:normal;font-stretch:normal;font-size:7px;line-height:normal;font-family:Arial;text-anchor:end"
                 x="15"
                 y="155.57455"
                 id="text8">0.2</text></g></g><g
             id="ytick_3"><g
               id="line2d_7"><g
                 id="g8"><use
                   xlink:href="#m1b89a6838b"
                   x="27"
                   y="121.45863"
                   style="stroke:#000000;stroke-width:0.25"
                   id="use8" /></g></g><g
               id="text_8"><text
                 style="font-style:normal;font-variant:normal;font-weight:normal;font-stretch:normal;font-size:7px;line-height:normal;font-family:Arial;text-anchor:end"
                 x="15"
                 y="123.96387"
                 id="text9">0.4</text></g></g><g
             id="ytick_4"><g
               id="line2d_8"><g
                 id="g9"><use
                   xlink:href="#m1b89a6838b"
                   x="27"
                   y="89.847954"
                   style="stroke:#000000;stroke-width:0.25"
                   id="use9" /></g></g><g
               id="text_9"><text
                 style="font-style:normal;font-variant:normal;font-weight:normal;font-stretch:normal;font-size:7px;line-height:normal;font-family:Arial;text-anchor:end"
                 x="15"
                 y="92.353188"
                 id="text10">0.6</text></g></g><g
             id="ytick_5"><g
               id="line2d_9"><g
                 id="g10"><use
                   xlink:href="#m1b89a6838b"
                   x="27"
                   y="58.237274"
                   style="stroke:#000000;stroke-width:0.25"
                   id="use10" /></g></g><g
               id="text_10"><text
                 style="font-style:normal;font-variant:normal;font-weight:normal;font-stretch:normal;font-size:7px;line-height:normal;font-family:Arial;text-anchor:end"
                 x="15"
                 y="60.742508"
                 id="text11">0.8</text></g></g><g
             id="ytick_6"><g
               id="line2d_10"><g
                 id="g11"><use
                   xlink:href="#m1b89a6838b"
                   x="27"
                   y="26.626593"
                   style="stroke:#000000;stroke-width:0.25"
                   id="use11" /></g></g><g
               id="text_11"><text
                 style="font-style:normal;font-variant:normal;font-weight:normal;font-stretch:normal;font-size:7px;line-height:normal;font-family:Arial;text-anchor:end"
                 x="15"
                 y="29.131828"
                 id="text12">1.0</text></g></g><g
             id="text_12"><text
               style="font-style:normal;font-variant:normal;font-weight:normal;font-stretch:normal;font-size:7px;line-height:normal;font-family:Arial;text-anchor:middle"
               x="-0.203281"
               y="109.08"
               transform="rotate(-90,-0.203281,109.08)"
               id="text13">Beta diversity</text></g></g><g
           id="patch_3"><path
             d="m 31.3524,184.68 h 16.4052 v 0 z"
             clip-path="url(#p1b150f7991)"
             style="fill:#3274a1;stroke:#3f3f3f;stroke-width:0.25;stroke-linejoin:miter"
             id="path13" /></g><g
           id="patch_4"><path
             d="m 48.0924,184.68 h 16.4052 v 0 z"
             clip-path="url(#p1b150f7991)"
             style="fill:#e1812c;stroke:#3f3f3f;stroke-width:0.25;stroke-linejoin:miter"
             id="path14" /></g><g
           id="patch_5"><path
             d="M 73.2024,99.652349 H 89.6076 V 58.666022 H 73.2024 Z"
             clip-path="url(#p1b150f7991)"
             style="fill:#3274a1;stroke:#3f3f3f;stroke-width:0.25;stroke-linejoin:miter"
             id="path15" /></g><g
           id="patch_6"><path
             d="m 89.9424,145.16886 h 16.4052 V 134.75399 H 89.9424 Z"
             clip-path="url(#p1b150f7991)"
             style="fill:#e1812c;stroke:#3f3f3f;stroke-width:0.25;stroke-linejoin:miter"
             id="path16" /></g><g
           id="patch_7"><path
             d="m 115.0524,101.39861 h 16.4052 V 55.327514 h -16.4052 z"
             clip-path="url(#p1b150f7991)"
             style="fill:#3274a1;stroke:#3f3f3f;stroke-width:0.25;stroke-linejoin:miter"
             id="path17" /></g><g
           id="patch_8"><path
             d="m 131.7924,131.8682 h 16.4052 v -26.37262 h -16.4052 z"
             clip-path="url(#p1b150f7991)"
             style="fill:#e1812c;stroke:#3f3f3f;stroke-width:0.25;stroke-linejoin:miter"
             id="path18" /></g><g
           id="patch_9"><path
             d="m 156.9024,107.69801 h 16.4052 V 45.153884 h -16.4052 z"
             clip-path="url(#p1b150f7991)"
             style="fill:#3274a1;stroke:#3f3f3f;stroke-width:0.25;stroke-linejoin:miter"
             id="path19" /></g><g
           id="patch_10"><path
             d="m 173.6424,117.94402 h 16.4052 V 89.631854 h -16.4052 z"
             clip-path="url(#p1b150f7991)"
             style="fill:#e1812c;stroke:#3f3f3f;stroke-width:0.25;stroke-linejoin:miter"
             id="path20" /></g><g
           id="patch_11"><path
             d="M 47.925,184.68 Z"
             clip-path="url(#p1b150f7991)"
             style="fill:#3274a1;stroke:#3f3f3f;stroke-width:0.125;stroke-linejoin:miter"
             id="path21" /></g><g
           id="patch_12"><path
             d="M 47.925,184.68 Z"
             clip-path="url(#p1b150f7991)"
             style="fill:#e1812c;stroke:#3f3f3f;stroke-width:0.125;stroke-linejoin:miter"
             id="path22" /></g><g
           id="PathCollection_1" /><g
           id="PathCollection_2" /><g
           id="line2d_11"><path
             d="m 39.555,184.68 v 0"
             clip-path="url(#p1b150f7991)"
             style="fill:none;stroke:#3f3f3f;stroke-width:0.25;stroke-linecap:square"
             id="path23" /></g><g
           id="line2d_12"><path
             d="m 39.555,184.68 v 0"
             clip-path="url(#p1b150f7991)"
             style="fill:none;stroke:#3f3f3f;stroke-width:0.25;stroke-linecap:square"
             id="path24" /></g><g
           id="line2d_13"><path
             d="m 56.295,184.68 v 0"
             clip-path="url(#p1b150f7991)"
             style="fill:none;stroke:#3f3f3f;stroke-width:0.25;stroke-linecap:square"
             id="path25" /></g><g
           id="line2d_14"><path
             d="m 56.295,184.68 v 0"
             clip-path="url(#p1b150f7991)"
             style="fill:none;stroke:#3f3f3f;stroke-width:0.25;stroke-linecap:square"
             id="path26" /></g><g
           id="line2d_15"><path
             d="M 81.405,99.652349 V 119.6387"
             clip-path="url(#p1b150f7991)"
             style="fill:none;stroke:#3f3f3f;stroke-width:0.25;stroke-linecap:square"
             id="path27" /></g><g
           id="line2d_16"><path
             d="M 81.405,58.666022 V 44.846691"
             clip-path="url(#p1b150f7991)"
             style="fill:none;stroke:#3f3f3f;stroke-width:0.25;stroke-linecap:square"
             id="path28" /></g><g
           id="line2d_17"><path
             d="m 98.145,145.16886 v 4.6833"
             clip-path="url(#p1b150f7991)"
             style="fill:none;stroke:#3f3f3f;stroke-width:0.25;stroke-linecap:square"
             id="path29" /></g><g
           id="line2d_18"><path
             d="M 98.145,134.75399 V 128.2847"
             clip-path="url(#p1b150f7991)"
             style="fill:none;stroke:#3f3f3f;stroke-width:0.25;stroke-linecap:square"
             id="path30" /></g><g
           id="line2d_19"><path
             d="M 123.255,101.39861 V 121.882"
             clip-path="url(#p1b150f7991)"
             style="fill:none;stroke:#3f3f3f;stroke-width:0.25;stroke-linecap:square"
             id="path31" /></g><g
           id="line2d_20"><path
             d="M 123.255,55.327514 V 37.080128"
             clip-path="url(#p1b150f7991)"
             style="fill:none;stroke:#3f3f3f;stroke-width:0.25;stroke-linecap:square"
             id="path32" /></g><g
           id="line2d_21"><path
             d="m 139.995,131.8682 v 1.86049"
             clip-path="url(#p1b150f7991)"
             style="fill:none;stroke:#3f3f3f;stroke-width:0.25;stroke-linecap:square"
             id="path33" /></g><g
           id="line2d_22"><path
             d="m 139.995,105.49558 v 0"
             clip-path="url(#p1b150f7991)"
             style="fill:none;stroke:#3f3f3f;stroke-width:0.25;stroke-linecap:square"
             id="path34" /></g><g
           id="line2d_23"><path
             d="m 165.105,107.69801 v 29.67087"
             clip-path="url(#p1b150f7991)"
             style="fill:none;stroke:#3f3f3f;stroke-width:0.25;stroke-linecap:square"
             id="path35" /></g><g
           id="line2d_24"><path
             d="M 165.105,45.153884 V 35.8796"
             clip-path="url(#p1b150f7991)"
             style="fill:none;stroke:#3f3f3f;stroke-width:0.25;stroke-linecap:square"
             id="path36" /></g><g
           id="line2d_25"><path
             d="m 181.845,117.94402 v 6.06"
             clip-path="url(#p1b150f7991)"
             style="fill:none;stroke:#3f3f3f;stroke-width:0.25;stroke-linecap:square"
             id="path37" /></g><g
           id="line2d_26"><path
             d="m 181.845,89.631854 v 0"
             clip-path="url(#p1b150f7991)"
             style="fill:none;stroke:#3f3f3f;stroke-width:0.25;stroke-linecap:square"
             id="path38" /></g><g
           id="line2d_27"><path
             d="M 31.3524,184.68 H 47.7576"
             clip-path="url(#p1b150f7991)"
             style="fill:none;stroke:#3f3f3f;stroke-width:0.25;stroke-linecap:square"
             id="path39" /></g><g
           id="line2d_28"><path
             d="M 48.0924,184.68 H 64.4976"
             clip-path="url(#p1b150f7991)"
             style="fill:none;stroke:#3f3f3f;stroke-width:0.25;stroke-linecap:square"
             id="path40" /></g><g
           id="line2d_29"><path
             d="M 73.2024,91.792197 H 89.6076"
             clip-path="url(#p1b150f7991)"
             style="fill:none;stroke:#3f3f3f;stroke-width:0.25;stroke-linecap:square"
             id="path41" /></g><g
           id="line2d_30"><path
             d="m 89.9424,139.96623 h 16.4052"
             clip-path="url(#p1b150f7991)"
             style="fill:none;stroke:#3f3f3f;stroke-width:0.25;stroke-linecap:square"
             id="path42" /></g><g
           id="line2d_31"><path
             d="m 115.0524,78.312953 h 16.4052"
             clip-path="url(#p1b150f7991)"
             style="fill:none;stroke:#3f3f3f;stroke-width:0.25;stroke-linecap:square"
             id="path43" /></g><g
           id="line2d_32"><path
             d="m 131.7924,118.2118 h 16.4052"
             clip-path="url(#p1b150f7991)"
             style="fill:none;stroke:#3f3f3f;stroke-width:0.25;stroke-linecap:square"
             id="path44" /></g><g
           id="line2d_33"><path
             d="m 156.9024,68.172256 h 16.4052"
             clip-path="url(#p1b150f7991)"
             style="fill:none;stroke:#3f3f3f;stroke-width:0.25;stroke-linecap:square"
             id="path45" /></g><g
           id="line2d_34"><path
             d="m 173.6424,112.13658 h 16.4052"
             clip-path="url(#p1b150f7991)"
             style="fill:none;stroke:#3f3f3f;stroke-width:0.25;stroke-linecap:square"
             id="path46" /></g><g
           id="patch_13"><path
             d="M 27,192.24 V 25.92"
             style="fill:none;stroke:#000000;stroke-width:0.25;stroke-linecap:square;stroke-linejoin:miter"
             id="path47" /></g><g
           id="patch_14"><path
             d="M 194.4,192.24 V 25.92"
             style="fill:none;stroke:#000000;stroke-width:0.25;stroke-linecap:square;stroke-linejoin:miter"
             id="path48" /></g><g
           id="patch_15"><path
             d="M 27,192.24 H 194.4"
             style="fill:none;stroke:#000000;stroke-width:0.25;stroke-linecap:square;stroke-linejoin:miter"
             id="path49" /></g><g
           id="patch_16"><path
             d="M 27,25.92 H 194.4"
             style="fill:none;stroke:#000000;stroke-width:0.25;stroke-linecap:square;stroke-linejoin:miter"
             id="path50" /></g><g
           id="PathCollection_3"><defs
             id="defs50"><path
               id="path5"
               d="M 0,1 C 0.265203,1 0.51958,0.894634 0.707107,0.707107 0.894634,0.51958 1,0.265203 1,0 1,-0.265203 0.894634,-0.51958 0.707107,-0.707107 0.51958,-0.894634 0.265203,-1 0,-1 -0.265203,-1 -0.51958,-0.894634 -0.707107,-0.707107 -0.894634,-0.51958 -1,-0.265203 -1,0 -1,0.265203 -0.894634,0.51958 -0.707107,0.707107 -0.51958,0.894634 -0.265203,1 0,1 Z" /></defs><g
             clip-path="url(#p1b150f7991)"
             id="g50"><use
               xlink:href="#C0_0_c31d6b3400"
               x="41.158974"
               y="184.67999"
               style="fill:#262626"
               id="use50" /></g><g
             clip-path="url(#p1b150f7991)"
             id="g51"><use
               xlink:href="#C0_0_c31d6b3400"
               x="41.007626"
               y="184.67999"
               style="fill:#262626"
               id="use51" /></g><g
             clip-path="url(#p1b150f7991)"
             id="g52"><use
               xlink:href="#C0_0_c31d6b3400"
               x="39.004799"
               y="184.67999"
               style="fill:#262626"
               id="use52" /></g><g
             clip-path="url(#p1b150f7991)"
             id="g53"><use
               xlink:href="#C0_0_c31d6b3400"
               x="38.377319"
               y="184.67999"
               style="fill:#262626"
               id="use53" /></g><g
             clip-path="url(#p1b150f7991)"
             id="g54"><use
               xlink:href="#C0_0_c31d6b3400"
               x="40.711987"
               y="184.67999"
               style="fill:#262626"
               id="use54" /></g><g
             clip-path="url(#p1b150f7991)"
             id="g55"><use
               xlink:href="#C0_0_c31d6b3400"
               x="38.557846"
               y="184.67999"
               style="fill:#262626"
               id="use55" /></g><g
             clip-path="url(#p1b150f7991)"
             id="g56"><use
               xlink:href="#C0_0_c31d6b3400"
               x="38.227455"
               y="184.67999"
               style="fill:#262626"
               id="use56" /></g><g
             clip-path="url(#p1b150f7991)"
             id="g57"><use
               xlink:href="#C0_0_c31d6b3400"
               x="37.801067"
               y="184.67999"
               style="fill:#262626"
               id="use57" /></g><g
             clip-path="url(#p1b150f7991)"
             id="g58"><use
               xlink:href="#C0_0_c31d6b3400"
               x="39.582188"
               y="184.67999"
               style="fill:#262626"
               id="use58" /></g><g
             clip-path="url(#p1b150f7991)"
             id="g59"><use
               xlink:href="#C0_0_c31d6b3400"
               x="41.326557"
               y="184.67999"
               style="fill:#262626"
               id="use59" /></g><g
             clip-path="url(#p1b150f7991)"
             id="g60"><use
               xlink:href="#C0_0_c31d6b3400"
               x="38.697098"
               y="184.67999"
               style="fill:#262626"
               id="use60" /></g><g
             clip-path="url(#p1b150f7991)"
             id="g61"><use
               xlink:href="#C0_0_c31d6b3400"
               x="40.669147"
               y="184.67999"
               style="fill:#262626"
               id="use61" /></g></g><g
           id="PathCollection_4"><defs
             id="defs61"><path
               id="path6"
               d="M 0,1 C 0.265203,1 0.51958,0.894634 0.707107,0.707107 0.894634,0.51958 1,0.265203 1,0 1,-0.265203 0.894634,-0.51958 0.707107,-0.707107 0.51958,-0.894634 0.265203,-1 0,-1 -0.265203,-1 -0.51958,-0.894634 -0.707107,-0.707107 -0.894634,-0.51958 -1,-0.265203 -1,0 -1,0.265203 -0.894634,0.51958 -0.707107,0.707107 -0.51958,0.894634 -0.265203,1 0,1 Z" /></defs><g
             clip-path="url(#p1b150f7991)"
             id="g62"><use
               xlink:href="#C1_0_913bc76759"
               x="54.586109"
               y="184.67999"
               style="fill:#333333"
               id="use62" /></g><g
             clip-path="url(#p1b150f7991)"
             id="g63"><use
               xlink:href="#C1_0_913bc76759"
               x="54.913586"
               y="184.67999"
               style="fill:#333333"
               id="use63" /></g><g
             clip-path="url(#p1b150f7991)"
             id="g64"><use
               xlink:href="#C1_0_913bc76759"
               x="55.49353"
               y="184.67999"
               style="fill:#333333"
               id="use64" /></g><g
             clip-path="url(#p1b150f7991)"
             id="g65"><use
               xlink:href="#C1_0_913bc76759"
               x="55.366219"
               y="184.67999"
               style="fill:#333333"
               id="use65" /></g><g
             clip-path="url(#p1b150f7991)"
             id="g66"><use
               xlink:href="#C1_0_913bc76759"
               x="56.463169"
               y="184.67999"
               style="fill:#333333"
               id="use66" /></g></g><g
           id="PathCollection_5"><defs
             id="defs66"><path
               id="path7"
               d="M 0,1 C 0.265203,1 0.51958,0.894634 0.707107,0.707107 0.894634,0.51958 1,0.265203 1,0 1,-0.265203 0.894634,-0.51958 0.707107,-0.707107 0.51958,-0.894634 0.265203,-1 0,-1 -0.265203,-1 -0.51958,-0.894634 -0.707107,-0.707107 -0.894634,-0.51958 -1,-0.265203 -1,0 -1,0.265203 -0.894634,0.51958 -0.707107,0.707107 -0.51958,0.894634 -0.265203,1 0,1 Z" /></defs><g
             clip-path="url(#p1b150f7991)"
             id="g67"><use
               xlink:href="#C2_0_2bd57a95c9"
               x="79.585762"
               y="50.020641"
               style="fill:#262626"
               id="use67" /></g><g
             clip-path="url(#p1b150f7991)"
             id="g68"><use
               xlink:href="#C2_0_2bd57a95c9"
               x="82.763336"
               y="97.63401"
               style="fill:#262626"
               id="use68" /></g><g
             clip-path="url(#p1b150f7991)"
             id="g69"><use
               xlink:href="#C2_0_2bd57a95c9"
               x="81.265259"
               y="81.56929"
               style="fill:#262626"
               id="use69" /></g><g
             clip-path="url(#p1b150f7991)"
             id="g70"><use
               xlink:href="#C2_0_2bd57a95c9"
               x="81.742287"
               y="119.6387"
               style="fill:#262626"
               id="use70" /></g><g
             clip-path="url(#p1b150f7991)"
             id="g71"><use
               xlink:href="#C2_0_2bd57a95c9"
               x="80.752983"
               y="94.37886"
               style="fill:#262626"
               id="use71" /></g><g
             clip-path="url(#p1b150f7991)"
             id="g72"><use
               xlink:href="#C2_0_2bd57a95c9"
               x="79.769165"
               y="93.213173"
               style="fill:#262626"
               id="use72" /></g><g
             clip-path="url(#p1b150f7991)"
             id="g73"><use
               xlink:href="#C2_0_2bd57a95c9"
               x="80.236778"
               y="90.371223"
               style="fill:#262626"
               id="use73" /></g><g
             clip-path="url(#p1b150f7991)"
             id="g74"><use
               xlink:href="#C2_0_2bd57a95c9"
               x="80.20311"
               y="51.866207"
               style="fill:#262626"
               id="use74" /></g><g
             clip-path="url(#p1b150f7991)"
             id="g75"><use
               xlink:href="#C2_0_2bd57a95c9"
               x="80.480301"
               y="44.846691"
               style="fill:#262626"
               id="use75" /></g><g
             clip-path="url(#p1b150f7991)"
             id="g76"><use
               xlink:href="#C2_0_2bd57a95c9"
               x="83.214363"
               y="112.98711"
               style="fill:#262626"
               id="use76" /></g><g
             clip-path="url(#p1b150f7991)"
             id="g77"><use
               xlink:href="#C2_0_2bd57a95c9"
               x="80.339767"
               y="60.932625"
               style="fill:#262626"
               id="use77" /></g><g
             clip-path="url(#p1b150f7991)"
             id="g78"><use
               xlink:href="#C2_0_2bd57a95c9"
               x="81.071922"
               y="105.70737"
               style="fill:#262626"
               id="use78" /></g></g><g
           id="PathCollection_6"><defs
             id="defs78"><path
               id="path8"
               d="M 0,1 C 0.265203,1 0.51958,0.894634 0.707107,0.707107 0.894634,0.51958 1,0.265203 1,0 1,-0.265203 0.894634,-0.51958 0.707107,-0.707107 0.51958,-0.894634 0.265203,-1 0,-1 -0.265203,-1 -0.51958,-0.894634 -0.707107,-0.707107 -0.894634,-0.51958 -1,-0.265203 -1,0 -1,0.265203 -0.894634,0.51958 -0.707107,0.707107 -0.51958,0.894634 -0.265203,1 0,1 Z" /></defs><g
             clip-path="url(#p1b150f7991)"
             id="g79"><use
               xlink:href="#C3_0_98938e4995"
               x="98.338913"
               y="145.16885"
               style="fill:#333333"
               id="use79" /></g><g
             clip-path="url(#p1b150f7991)"
             id="g80"><use
               xlink:href="#C3_0_98938e4995"
               x="96.507416"
               y="139.96623"
               style="fill:#333333"
               id="use80" /></g><g
             clip-path="url(#p1b150f7991)"
             id="g81"><use
               xlink:href="#C3_0_98938e4995"
               x="96.890953"
               y="128.2847"
               style="fill:#333333"
               id="use81" /></g><g
             clip-path="url(#p1b150f7991)"
             id="g82"><use
               xlink:href="#C3_0_98938e4995"
               x="98.262581"
               y="134.75398"
               style="fill:#333333"
               id="use82" /></g><g
             clip-path="url(#p1b150f7991)"
             id="g83"><use
               xlink:href="#C3_0_98938e4995"
               x="96.35714"
               y="149.85216"
               style="fill:#333333"
               id="use83" /></g></g><g
           id="PathCollection_7"><defs
             id="defs83"><path
               id="path9"
               d="M 0,1 C 0.265203,1 0.51958,0.894634 0.707107,0.707107 0.894634,0.51958 1,0.265203 1,0 1,-0.265203 0.894634,-0.51958 0.707107,-0.707107 0.51958,-0.894634 0.265203,-1 0,-1 -0.265203,-1 -0.51958,-0.894634 -0.707107,-0.707107 -0.894634,-0.51958 -1,-0.265203 -1,0 -1,0.265203 -0.894634,0.51958 -0.707107,0.707107 -0.51958,0.894634 -0.265203,1 0,1 Z" /></defs><g
             clip-path="url(#p1b150f7991)"
             id="g84"><use
               xlink:href="#C4_0_203079dca0"
               x="121.43724"
               y="37.080128"
               style="fill:#262626"
               id="use84" /></g><g
             clip-path="url(#p1b150f7991)"
             id="g85"><use
               xlink:href="#C4_0_203079dca0"
               x="122.81477"
               y="121.882"
               style="fill:#262626"
               id="use85" /></g><g
             clip-path="url(#p1b150f7991)"
             id="g86"><use
               xlink:href="#C4_0_203079dca0"
               x="123.2177"
               y="58.224693"
               style="fill:#262626"
               id="use86" /></g><g
             clip-path="url(#p1b150f7991)"
             id="g87"><use
               xlink:href="#C4_0_203079dca0"
               x="121.8026"
               y="75.89843"
               style="fill:#262626"
               id="use87" /></g><g
             clip-path="url(#p1b150f7991)"
             id="g88"><use
               xlink:href="#C4_0_203079dca0"
               x="124.50863"
               y="83.072609"
               style="fill:#262626"
               id="use88" /></g><g
             clip-path="url(#p1b150f7991)"
             id="g89"><use
               xlink:href="#C4_0_203079dca0"
               x="123.84004"
               y="80.727478"
               style="fill:#262626"
               id="use89" /></g><g
             clip-path="url(#p1b150f7991)"
             id="g90"><use
               xlink:href="#C4_0_203079dca0"
               x="124.67514"
               y="111.99011"
               style="fill:#262626"
               id="use90" /></g><g
             clip-path="url(#p1b150f7991)"
             id="g91"><use
               xlink:href="#C4_0_203079dca0"
               x="122.7748"
               y="45.058491"
               style="fill:#262626"
               id="use91" /></g><g
             clip-path="url(#p1b150f7991)"
             id="g92"><use
               xlink:href="#C4_0_203079dca0"
               x="124.619"
               y="46.635979"
               style="fill:#262626"
               id="use92" /></g><g
             clip-path="url(#p1b150f7991)"
             id="g93"><use
               xlink:href="#C4_0_203079dca0"
               x="121.29514"
               y="111.85168"
               style="fill:#262626"
               id="use93" /></g><g
             clip-path="url(#p1b150f7991)"
             id="g94"><use
               xlink:href="#C4_0_203079dca0"
               x="121.2715"
               y="61.698257"
               style="fill:#262626"
               id="use94" /></g><g
             clip-path="url(#p1b150f7991)"
             id="g95"><use
               xlink:href="#C4_0_203079dca0"
               x="121.51617"
               y="97.914253"
               style="fill:#262626"
               id="use95" /></g></g><g
           id="PathCollection_8"><defs
             id="defs95"><path
               id="path10"
               d="M 0,1 C 0.265203,1 0.51958,0.894634 0.707107,0.707107 0.894634,0.51958 1,0.265203 1,0 1,-0.265203 0.894634,-0.51958 0.707107,-0.707107 0.51958,-0.894634 0.265203,-1 0,-1 -0.265203,-1 -0.51958,-0.894634 -0.707107,-0.707107 -0.894634,-0.51958 -1,-0.265203 -1,0 -1,0.265203 -0.894634,0.51958 -0.707107,0.707107 -0.51958,0.894634 -0.265203,1 0,1 Z" /></defs><g
             clip-path="url(#p1b150f7991)"
             id="g96"><use
               xlink:href="#C5_0_3305db638e"
               x="139.84804"
               y="34.521832"
               style="fill:#333333"
               id="use96" /></g><g
             clip-path="url(#p1b150f7991)"
             id="g97"><use
               xlink:href="#C5_0_3305db638e"
               x="140.21434"
               y="118.21181"
               style="fill:#333333"
               id="use97" /></g><g
             clip-path="url(#p1b150f7991)"
             id="g98"><use
               xlink:href="#C5_0_3305db638e"
               x="141.70287"
               y="131.86821"
               style="fill:#333333"
               id="use98" /></g><g
             clip-path="url(#p1b150f7991)"
             id="g99"><use
               xlink:href="#C5_0_3305db638e"
               x="141.42274"
               y="105.49558"
               style="fill:#333333"
               id="use99" /></g><g
             clip-path="url(#p1b150f7991)"
             id="g100"><use
               xlink:href="#C5_0_3305db638e"
               x="139.78474"
               y="133.72868"
               style="fill:#333333"
               id="use100" /></g></g><g
           id="PathCollection_9"><defs
             id="defs100"><path
               id="path11"
               d="M 0,1 C 0.265203,1 0.51958,0.894634 0.707107,0.707107 0.894634,0.51958 1,0.265203 1,0 1,-0.265203 0.894634,-0.51958 0.707107,-0.707107 0.51958,-0.894634 0.265203,-1 0,-1 -0.265203,-1 -0.51958,-0.894634 -0.707107,-0.707107 -0.894634,-0.51958 -1,-0.265203 -1,0 -1,0.265203 -0.894634,0.51958 -0.707107,0.707107 -0.51958,0.894634 -0.265203,1 0,1 Z" /></defs><g
             clip-path="url(#p1b150f7991)"
             id="g101"><use
               xlink:href="#C6_0_aa3138f1ca"
               x="165.43402"
               y="76.61853"
               style="fill:#262626"
               id="use101" /></g><g
             clip-path="url(#p1b150f7991)"
             id="g102"><use
               xlink:href="#C6_0_aa3138f1ca"
               x="164.50685"
               y="131.50853"
               style="fill:#262626"
               id="use102" /></g><g
             clip-path="url(#p1b150f7991)"
             id="g103"><use
               xlink:href="#C6_0_aa3138f1ca"
               x="165.2402"
               y="80.770447"
               style="fill:#262626"
               id="use103" /></g><g
             clip-path="url(#p1b150f7991)"
             id="g104"><use
               xlink:href="#C6_0_aa3138f1ca"
               x="163.3443"
               y="49.305817"
               style="fill:#262626"
               id="use104" /></g><g
             clip-path="url(#p1b150f7991)"
             id="g105"><use
               xlink:href="#C6_0_aa3138f1ca"
               x="165.17763"
               y="108.11658"
               style="fill:#262626"
               id="use105" /></g><g
             clip-path="url(#p1b150f7991)"
             id="g106"><use
               xlink:href="#C6_0_aa3138f1ca"
               x="164.23369"
               y="45.478683"
               style="fill:#262626"
               id="use106" /></g><g
             clip-path="url(#p1b150f7991)"
             id="g107"><use
               xlink:href="#C6_0_aa3138f1ca"
               x="164.0265"
               y="137.36888"
               style="fill:#262626"
               id="use107" /></g><g
             clip-path="url(#p1b150f7991)"
             id="g108"><use
               xlink:href="#C6_0_aa3138f1ca"
               x="164.40533"
               y="40.591293"
               style="fill:#262626"
               id="use108" /></g><g
             clip-path="url(#p1b150f7991)"
             id="g109"><use
               xlink:href="#C6_0_aa3138f1ca"
               x="164.54709"
               y="44.179485"
               style="fill:#262626"
               id="use109" /></g><g
             clip-path="url(#p1b150f7991)"
             id="g110"><use
               xlink:href="#C6_0_aa3138f1ca"
               x="165.67392"
               y="35.879601"
               style="fill:#262626"
               id="use110" /></g><g
             clip-path="url(#p1b150f7991)"
             id="g111"><use
               xlink:href="#C6_0_aa3138f1ca"
               x="166.4803"
               y="59.725983"
               style="fill:#262626"
               id="use111" /></g><g
             clip-path="url(#p1b150f7991)"
             id="g112"><use
               xlink:href="#C6_0_aa3138f1ca"
               x="163.78787"
               y="107.55849"
               style="fill:#262626"
               id="use112" /></g></g><g
           id="PathCollection_10"><defs
             id="defs112"><path
               id="path12"
               d="M 0,1 C 0.265203,1 0.51958,0.894634 0.707107,0.707107 0.894634,0.51958 1,0.265203 1,0 1,-0.265203 0.894634,-0.51958 0.707107,-0.707107 0.51958,-0.894634 0.265203,-1 0,-1 -0.265203,-1 -0.51958,-0.894634 -0.707107,-0.707107 -0.894634,-0.51958 -1,-0.265203 -1,0 -1,0.265203 -0.894634,0.51958 -0.707107,0.707107 -0.51958,0.894634 -0.265203,1 0,1 Z" /></defs><g
             clip-path="url(#p1b150f7991)"
             id="g113"><use
               xlink:href="#C7_0_dc1a5fdac6"
               x="180.66057"
               y="33.48"
               style="fill:#333333"
               id="use113" /></g><g
             clip-path="url(#p1b150f7991)"
             id="g114"><use
               xlink:href="#C7_0_dc1a5fdac6"
               x="182.26817"
               y="115.92402"
               style="fill:#333333"
               id="use114" /></g><g
             clip-path="url(#p1b150f7991)"
             id="g115"><use
               xlink:href="#C7_0_dc1a5fdac6"
               x="182.78456"
               y="108.34914"
               style="fill:#333333"
               id="use115" /></g><g
             clip-path="url(#p1b150f7991)"
             id="g116"><use
               xlink:href="#C7_0_dc1a5fdac6"
               x="181.63794"
               y="124.00402"
               style="fill:#333333"
               id="use116" /></g></g><g
           id="legend_1"
           transform="translate(117.76366,-295.64977)"><g
             id="patch_18"><path
               d="m 82.191555,329.573 h 14 v -4.9 h -14 z"
               style="fill:#3274a1;stroke:#3f3f3f;stroke-width:0.125;stroke-linejoin:miter"
               id="path117" /></g><g
             id="text_14"><text
               style="font-style:normal;font-variant:normal;font-weight:normal;font-stretch:normal;font-size:7px;line-height:normal;font-family:Arial;text-anchor:start"
               x="101.79156"
               y="329.573"
               id="text117">FMT</text></g><g
             id="patch_19"><path
               d="m 82.191555,339.47472 h 14 v -4.9 h -14 z"
               style="fill:#e1812c;stroke:#3f3f3f;stroke-width:0.125;stroke-linejoin:miter"
               id="path118" /></g><g
             id="text_15"><text
               style="font-style:normal;font-variant:normal;font-weight:normal;font-stretch:normal;font-size:7px;line-height:normal;font-family:Arial;text-anchor:start"
               x="101.79156"
               y="339.47473"
               id="text118">PLACEBO</text></g></g></g></g></g></svg>
