<?xml version="1.0" encoding="utf-8" standalone="no"?>
<!DOCTYPE svg PUBLIC "-//W3C//DTD SVG 1.1//EN"
  "http://www.w3.org/Graphics/SVG/1.1/DTD/svg11.dtd">
<svg xmlns:xlink="http://www.w3.org/1999/xlink" width="460.8pt" height="345.6pt" viewBox="0 0 460.8 345.6" xmlns="http://www.w3.org/2000/svg" version="1.1">
 <metadata>
  <rdf:RDF xmlns:dc="http://purl.org/dc/elements/1.1/" xmlns:cc="http://creativecommons.org/ns#" xmlns:rdf="http://www.w3.org/1999/02/22-rdf-syntax-ns#">
   <cc:Work>
    <dc:type rdf:resource="http://purl.org/dc/dcmitype/StillImage"/>
    <dc:date>2022-01-22T11:30:39.481443</dc:date>
    <dc:format>image/svg+xml</dc:format>
    <dc:creator>
     <cc:Agent>
      <dc:title>Matplotlib v3.5.1, https://matplotlib.org/</dc:title>
     </cc:Agent>
    </dc:creator>
   </cc:Work>
  </rdf:RDF>
 </metadata>
 <defs>
  <style type="text/css">*{stroke-linejoin: round; stroke-linecap: butt}</style>
 </defs>
 <g id="figure_1">
  <g id="patch_1">
   <path d="M 0 345.6 
L 460.8 345.6 
L 460.8 0 
L 0 0 
z
" style="fill: #ffffff"/>
  </g>
  <g id="axes_1">
   <g id="patch_2">
    <path d="M 299.212052 111.434786 
C 287.118015 93.757053 270.164586 79.949604 250.404671 71.684394 
C 230.644755 63.419183 208.909479 61.043856 187.830785 64.846044 
C 166.752091 68.648231 147.216575 78.468007 131.589809 93.116288 
C 115.963042 107.764569 104.902306 126.625229 99.746954 147.414417 
C 94.591602 168.203605 95.558475 190.0469 102.530494 210.299281 
C 109.502512 230.551662 122.186423 248.361288 139.046323 261.571577 
C 155.906224 274.781866 176.232963 282.837177 197.565162 284.762086 
C 218.897361 286.686995 240.337758 282.400538 259.290121 272.421765 
C 255.986214 268.497463 253.509266 263.945591 252.008383 259.040156 
C 250.5075 254.13472 250.013413 248.976166 250.555864 243.875019 
C 251.098316 238.773873 252.666199 233.834586 255.165132 229.354488 
C 257.664066 224.874389 261.04288 220.945215 265.098184 217.803485 
C 257.330373 209.482668 251.922291 199.237511 249.434334 188.129633 
C 246.946377 177.021755 247.467553 165.448555 250.943858 154.609266 
C 254.420164 143.769977 260.727229 134.052389 269.211505 126.463453 
C 277.695781 118.874517 288.053733 113.685738 299.212052 111.434786 
" clip-path="url(#pae9fd053da)" style="fill: #ff0000; opacity: 0.4"/>
   </g>
   <g id="patch_3">
    <path d="M 299.212052 111.434786 
C 309.640478 126.67791 316.103873 144.284229 318.015002 162.654109 
C 319.926131 181.023988 317.225306 199.583716 310.157914 216.647035 
C 313.640019 219.069449 316.692934 222.056848 319.190305 225.48559 
C 321.687677 228.914332 323.594569 232.736452 324.83206 236.793761 
C 341.413179 233.361131 355.971555 223.482197 365.286905 209.342158 
C 374.602255 195.202118 377.93306 177.926547 374.542554 161.336763 
C 371.152048 144.746979 361.31012 130.16356 347.193785 120.812328 
C 333.07745 111.461095 315.810394 108.086425 299.212052 111.434786 
" clip-path="url(#pae9fd053da)" style="fill: #008000; opacity: 0.4"/>
   </g>
   <g id="patch_4">
    <path d="M 299.212052 111.434786 
C 288.053733 113.685738 277.695781 118.874517 269.211505 126.463453 
C 260.727229 134.052389 254.420164 143.769977 250.943858 154.609266 
C 247.467553 165.448555 246.946377 177.021755 249.434334 188.129633 
C 251.922291 199.237511 257.330373 209.482668 265.098184 217.803485 
C 271.506175 212.839079 279.335163 210.048541 287.438522 209.84057 
C 295.541882 209.632598 303.503705 212.017868 310.157914 216.647035 
C 317.225306 199.583716 319.926131 181.023988 318.015002 162.654109 
C 316.103873 144.284229 309.640478 126.67791 299.212052 111.434786 
" clip-path="url(#pae9fd053da)" style="fill: #b25900; opacity: 0.4"/>
   </g>
   <g id="patch_5">
    <path d="M 259.290121 272.421765 
C 264.938664 279.130967 272.735596 283.686617 281.353795 285.313294 
C 289.971993 286.93997 298.893075 285.539829 306.598575 281.351189 
C 314.304074 277.16255 320.330507 270.437357 323.652108 262.320314 
C 326.973708 254.203271 327.390684 245.182615 324.83206 236.793761 
C 320.618687 237.666015 316.328045 238.110987 312.025347 238.121915 
C 307.722648 238.132843 303.429801 237.709671 299.212052 236.85883 
C 294.124484 244.295277 288.150835 251.085068 281.42294 257.078358 
C 274.695045 263.071648 267.262764 268.22402 259.290121 272.421765 
" clip-path="url(#pae9fd053da)" style="fill: #0000ff; opacity: 0.4"/>
   </g>
   <g id="patch_6">
    <path d="M 259.290121 272.421765 
C 267.262764 268.22402 274.695045 263.071648 281.42294 257.078358 
C 288.150835 251.085068 294.124484 244.295277 299.212052 236.85883 
C 292.711504 235.547483 286.454201 233.233332 280.66468 229.999418 
C 274.875159 226.765504 269.62351 222.650978 265.098184 217.803485 
C 261.04288 220.945215 257.664066 224.874389 255.165132 229.354488 
C 252.666199 233.834586 251.098316 238.773873 250.555864 243.875019 
C 250.013413 248.976166 250.5075 254.13472 252.008383 259.040156 
C 253.509266 263.945591 255.986214 268.497463 259.290121 272.421765 
" clip-path="url(#pae9fd053da)" style="fill: #b200b2; opacity: 0.4"/>
   </g>
   <g id="patch_7">
    <path d="M 310.157914 216.647035 
C 308.689017 220.1935 307.037248 223.661429 305.209257 227.036858 
C 303.381266 230.412286 301.379511 233.690678 299.212052 236.85883 
C 303.429801 237.709671 307.722648 238.132843 312.025347 238.121915 
C 316.328045 238.110987 320.618687 237.666015 324.83206 236.793761 
C 323.594569 232.736452 321.687677 228.914332 319.190305 225.48559 
C 316.692934 222.056848 313.640019 219.069449 310.157914 216.647035 
" clip-path="url(#pae9fd053da)" style="fill: #0059b2; opacity: 0.4"/>
   </g>
   <g id="patch_8">
    <path d="M 265.098184 217.803485 
C 269.62351 222.650978 274.875159 226.765504 280.66468 229.999418 
C 286.454201 233.233332 292.711504 235.547483 299.212052 236.85883 
C 301.379511 233.690678 303.381266 230.412286 305.209257 227.036858 
C 307.037248 223.661429 308.689017 220.1935 310.157914 216.647035 
C 303.503705 212.017868 295.541882 209.632598 287.438522 209.84057 
C 279.335163 210.048541 271.506175 212.839079 265.098184 217.803485 
" clip-path="url(#pae9fd053da)" style="fill: #663366; opacity: 0.4"/>
   </g>
   <g id="text_1">
    <!-- 680 -->
    <g transform="translate(157.897425 170.66455)scale(0.1 -0.1)">
     <defs>
      <path id="DejaVuSans-36" d="M 2113 2584 
Q 1688 2584 1439 2293 
Q 1191 2003 1191 1497 
Q 1191 994 1439 701 
Q 1688 409 2113 409 
Q 2538 409 2786 701 
Q 3034 994 3034 1497 
Q 3034 2003 2786 2293 
Q 2538 2584 2113 2584 
z
M 3366 4563 
L 3366 3988 
Q 3128 4100 2886 4159 
Q 2644 4219 2406 4219 
Q 1781 4219 1451 3797 
Q 1122 3375 1075 2522 
Q 1259 2794 1537 2939 
Q 1816 3084 2150 3084 
Q 2853 3084 3261 2657 
Q 3669 2231 3669 1497 
Q 3669 778 3244 343 
Q 2819 -91 2113 -91 
Q 1303 -91 875 529 
Q 447 1150 447 2328 
Q 447 3434 972 4092 
Q 1497 4750 2381 4750 
Q 2619 4750 2861 4703 
Q 3103 4656 3366 4563 
z
" transform="scale(0.015625)"/>
      <path id="DejaVuSans-38" d="M 2034 2216 
Q 1584 2216 1326 1975 
Q 1069 1734 1069 1313 
Q 1069 891 1326 650 
Q 1584 409 2034 409 
Q 2484 409 2743 651 
Q 3003 894 3003 1313 
Q 3003 1734 2745 1975 
Q 2488 2216 2034 2216 
z
M 1403 2484 
Q 997 2584 770 2862 
Q 544 3141 544 3541 
Q 544 4100 942 4425 
Q 1341 4750 2034 4750 
Q 2731 4750 3128 4425 
Q 3525 4100 3525 3541 
Q 3525 3141 3298 2862 
Q 3072 2584 2669 2484 
Q 3125 2378 3379 2068 
Q 3634 1759 3634 1313 
Q 3634 634 3220 271 
Q 2806 -91 2034 -91 
Q 1263 -91 848 271 
Q 434 634 434 1313 
Q 434 1759 690 2068 
Q 947 2378 1403 2484 
z
M 1172 3481 
Q 1172 3119 1398 2916 
Q 1625 2713 2034 2713 
Q 2441 2713 2670 2916 
Q 2900 3119 2900 3481 
Q 2900 3844 2670 4047 
Q 2441 4250 2034 4250 
Q 1625 4250 1398 4047 
Q 1172 3844 1172 3481 
z
" transform="scale(0.015625)"/>
      <path id="DejaVuSans-30" d="M 2034 4250 
Q 1547 4250 1301 3770 
Q 1056 3291 1056 2328 
Q 1056 1369 1301 889 
Q 1547 409 2034 409 
Q 2525 409 2770 889 
Q 3016 1369 3016 2328 
Q 3016 3291 2770 3770 
Q 2525 4250 2034 4250 
z
M 2034 4750 
Q 2819 4750 3233 4129 
Q 3647 3509 3647 2328 
Q 3647 1150 3233 529 
Q 2819 -91 2034 -91 
Q 1250 -91 836 529 
Q 422 1150 422 2328 
Q 422 3509 836 4129 
Q 1250 4750 2034 4750 
z
" transform="scale(0.015625)"/>
     </defs>
     <use xlink:href="#DejaVuSans-36"/>
     <use xlink:href="#DejaVuSans-38" x="63.623047"/>
     <use xlink:href="#DejaVuSans-30" x="127.246094"/>
    </g>
   </g>
   <g id="text_2">
    <!-- 126 -->
    <g transform="translate(345.601872 173.289183)scale(0.1 -0.1)">
     <defs>
      <path id="DejaVuSans-31" d="M 794 531 
L 1825 531 
L 1825 4091 
L 703 3866 
L 703 4441 
L 1819 4666 
L 2450 4666 
L 2450 531 
L 3481 531 
L 3481 0 
L 794 0 
L 794 531 
z
" transform="scale(0.015625)"/>
      <path id="DejaVuSans-32" d="M 1228 531 
L 3431 531 
L 3431 0 
L 469 0 
L 469 531 
Q 828 903 1448 1529 
Q 2069 2156 2228 2338 
Q 2531 2678 2651 2914 
Q 2772 3150 2772 3378 
Q 2772 3750 2511 3984 
Q 2250 4219 1831 4219 
Q 1534 4219 1204 4116 
Q 875 4013 500 3803 
L 500 4441 
Q 881 4594 1212 4672 
Q 1544 4750 1819 4750 
Q 2544 4750 2975 4387 
Q 3406 4025 3406 3419 
Q 3406 3131 3298 2873 
Q 3191 2616 2906 2266 
Q 2828 2175 2409 1742 
Q 1991 1309 1228 531 
z
" transform="scale(0.015625)"/>
     </defs>
     <use xlink:href="#DejaVuSans-31"/>
     <use xlink:href="#DejaVuSans-32" x="63.623047"/>
     <use xlink:href="#DejaVuSans-36" x="127.246094"/>
    </g>
   </g>
   <g id="text_3">
    <!-- 138 -->
    <g transform="translate(267.143267 175.158265)scale(0.1 -0.1)">
     <defs>
      <path id="DejaVuSans-33" d="M 2597 2516 
Q 3050 2419 3304 2112 
Q 3559 1806 3559 1356 
Q 3559 666 3084 287 
Q 2609 -91 1734 -91 
Q 1441 -91 1130 -33 
Q 819 25 488 141 
L 488 750 
Q 750 597 1062 519 
Q 1375 441 1716 441 
Q 2309 441 2620 675 
Q 2931 909 2931 1356 
Q 2931 1769 2642 2001 
Q 2353 2234 1838 2234 
L 1294 2234 
L 1294 2753 
L 1863 2753 
Q 2328 2753 2575 2939 
Q 2822 3125 2822 3475 
Q 2822 3834 2567 4026 
Q 2313 4219 1838 4219 
Q 1578 4219 1281 4162 
Q 984 4106 628 3988 
L 628 4550 
Q 988 4650 1302 4700 
Q 1616 4750 1894 4750 
Q 2613 4750 3031 4423 
Q 3450 4097 3450 3541 
Q 3450 3153 3228 2886 
Q 3006 2619 2597 2516 
z
" transform="scale(0.015625)"/>
     </defs>
     <use xlink:href="#DejaVuSans-31"/>
     <use xlink:href="#DejaVuSans-33" x="63.623047"/>
     <use xlink:href="#DejaVuSans-38" x="127.246094"/>
    </g>
   </g>
   <g id="text_4">
    <!-- 35 -->
    <g transform="translate(297.464993 276.051964)scale(0.1 -0.1)">
     <defs>
      <path id="DejaVuSans-35" d="M 691 4666 
L 3169 4666 
L 3169 4134 
L 1269 4134 
L 1269 2991 
Q 1406 3038 1543 3061 
Q 1681 3084 1819 3084 
Q 2600 3084 3056 2656 
Q 3513 2228 3513 1497 
Q 3513 744 3044 326 
Q 2575 -91 1722 -91 
Q 1428 -91 1123 -41 
Q 819 9 494 109 
L 494 744 
Q 775 591 1075 516 
Q 1375 441 1709 441 
Q 2250 441 2565 725 
Q 2881 1009 2881 1497 
Q 2881 1984 2565 2268 
Q 2250 2553 1709 2553 
Q 1456 2553 1204 2497 
Q 953 2441 691 2322 
L 691 4666 
z
" transform="scale(0.015625)"/>
     </defs>
     <use xlink:href="#DejaVuSans-33"/>
     <use xlink:href="#DejaVuSans-35" x="63.623047"/>
    </g>
   </g>
   <g id="text_5">
    <!-- 43 -->
    <g transform="translate(256.588923 245.827389)scale(0.1 -0.1)">
     <defs>
      <path id="DejaVuSans-34" d="M 2419 4116 
L 825 1625 
L 2419 1625 
L 2419 4116 
z
M 2253 4666 
L 3047 4666 
L 3047 1625 
L 3713 1625 
L 3713 1100 
L 3047 1100 
L 3047 0 
L 2419 0 
L 2419 1100 
L 313 1100 
L 313 1709 
L 2253 4666 
z
" transform="scale(0.015625)"/>
     </defs>
     <use xlink:href="#DejaVuSans-34"/>
     <use xlink:href="#DejaVuSans-33" x="63.623047"/>
    </g>
   </g>
   <g id="text_6">
    <!-- 17 -->
    <g transform="translate(308.297323 232.485029)scale(0.1 -0.1)">
     <defs>
      <path id="DejaVuSans-37" d="M 525 4666 
L 3525 4666 
L 3525 4397 
L 1831 0 
L 1172 0 
L 2766 4134 
L 525 4134 
L 525 4666 
z
" transform="scale(0.015625)"/>
     </defs>
     <use xlink:href="#DejaVuSans-31"/>
     <use xlink:href="#DejaVuSans-37" x="63.623047"/>
    </g>
   </g>
   <g id="text_7">
    <!-- 7 -->
    <g transform="translate(284.008971 220.274405)scale(0.1 -0.1)">
     <use xlink:href="#DejaVuSans-37"/>
    </g>
   </g>
   <g id="text_8">
    <!-- A -->
    <g transform="translate(143.805422 63.082109)scale(0.12 -0.12)">
     <defs>
      <path id="DejaVuSans-41" d="M 2188 4044 
L 1331 1722 
L 3047 1722 
L 2188 4044 
z
M 1831 4666 
L 2547 4666 
L 4325 0 
L 3669 0 
L 3244 1197 
L 1141 1197 
L 716 0 
L 50 0 
L 1831 4666 
z
" transform="scale(0.015625)"/>
     </defs>
     <use xlink:href="#DejaVuSans-41"/>
    </g>
   </g>
   <g id="text_9">
    <!-- B -->
    <g transform="translate(343.850521 110.171494)scale(0.12 -0.12)">
     <defs>
      <path id="DejaVuSans-42" d="M 1259 2228 
L 1259 519 
L 2272 519 
Q 2781 519 3026 730 
Q 3272 941 3272 1375 
Q 3272 1813 3026 2020 
Q 2781 2228 2272 2228 
L 1259 2228 
z
M 1259 4147 
L 1259 2741 
L 2194 2741 
Q 2656 2741 2882 2914 
Q 3109 3088 3109 3444 
Q 3109 3797 2882 3972 
Q 2656 4147 2194 4147 
L 1259 4147 
z
M 628 4666 
L 2241 4666 
Q 2963 4666 3353 4366 
Q 3744 4066 3744 3513 
Q 3744 3084 3544 2831 
Q 3344 2578 2956 2516 
Q 3422 2416 3680 2098 
Q 3938 1781 3938 1306 
Q 3938 681 3513 340 
Q 3088 0 2303 0 
L 628 0 
L 628 4666 
z
" transform="scale(0.015625)"/>
     </defs>
     <use xlink:href="#DejaVuSans-42"/>
    </g>
   </g>
   <g id="text_10">
    <!-- C -->
    <g transform="translate(284.225648 298.899309)scale(0.12 -0.12)">
     <defs>
      <path id="DejaVuSans-43" d="M 4122 4306 
L 4122 3641 
Q 3803 3938 3442 4084 
Q 3081 4231 2675 4231 
Q 1875 4231 1450 3742 
Q 1025 3253 1025 2328 
Q 1025 1406 1450 917 
Q 1875 428 2675 428 
Q 3081 428 3442 575 
Q 3803 722 4122 1019 
L 4122 359 
Q 3791 134 3420 21 
Q 3050 -91 2638 -91 
Q 1578 -91 968 557 
Q 359 1206 359 2328 
Q 359 3453 968 4101 
Q 1578 4750 2638 4750 
Q 3056 4750 3426 4639 
Q 3797 4528 4122 4306 
z
" transform="scale(0.015625)"/>
     </defs>
     <use xlink:href="#DejaVuSans-43"/>
    </g>
   </g>
  </g>
 </g>
 <defs>
  <clipPath id="pae9fd053da">
   <rect x="74.871713" y="41.472" width="322.576574" height="266.112"/>
  </clipPath>
 </defs>
</svg>
